<?xml version="1.0" encoding="utf-8"?>
<!-- Generator: Adobe Illustrator 24.3.0, SVG Export Plug-In . SVG Version: 6.00 Build 0)  -->
<svg version="1.1" id="Vrstva_1" xmlns="http://www.w3.org/2000/svg" xmlns:xlink="http://www.w3.org/1999/xlink" x="0px" y="0px"
	 viewBox="0 0 1000 1000" style="enable-background:new 0 0 1000 1000;" xml:space="preserve">
<style type="text/css">
	.st0{fill:#FFFFFF;}
	.st1{fill:#2F2A50;}
</style>
<path class="st0" d="M15,901l15.83-114.81L99,603l41-146l23-137l36-69l163-73l-46-45.52L320,85l102.04-45.02L533,26c0,0,94,8,98,8
	s71.77,26,71.77,26S721,89,721,95s3,42,0,46s-37,44-37,44l60.02,21.92L827,242c0,0,45,52,45,59s29,103,29,106s12,138,12,138l17,124
	l24,100.2L984,893c0,0-13.49,28-17.74,29c-4.26,1-67.26,5-67.26,5l-37-16l-7-10l-46-145l-64.98-250L733,592l-2,115l5,111v91l-11,46
	l-52,15h-67l-71-10.54L489,970H367h-60l-29-10.54L274.39,875L279,701l-4.61-141L250,622l-55,119l-37,88l-26,58c0,0-26,18-29,20
	s-41,5-46,5S15,901,15,901z"/>
<g>
	<path class="st1" d="M967.22,768.14c-16.02-69.91-30.39-140.21-42.25-210.96c-14.58-86.93-7.73-239.53-64.22-312.13
		c-13.61-17.49-29.46-21.96-50.51-30.02c-26.21-10.03-64.47-26.79-100.74-38.02c39.29-20.8,63.71-44.14,27.27-95.18
		C687.3,12.58,583.3,10.44,507.29,15.11c-59.34,3.65-200.98,27.28-223.61,99.01c-12.47,39.54,22.52,53.49,58.55,65.56
		c-53.61,14.96-141.8,30.05-172.28,68.13c-29.54,36.92-21.24,102.7-28.91,146.62C110.74,567.8,26.99,725.61,0.23,899.29
		c-1.38,8.97,3.43,15.04,12.33,16.18c90.66,11.63,103.34,25.05,144.33-55.91c41.96-82.87,77.94-168.12,109.27-255.32
		c0.04,52.49,0.09,104.98,0.13,157.47c0.04,45.17-19.17,164.29,2.08,203.31c7.42,13.61,5.15,10.17,20.48,16.33
		c25.62,10.3,75.08,1.6,103.53,2.13c47.52,0.89,95.04,1.78,142.56,2.67c6.11,0.11,12.03-5.04,12.67-11.17
		c60.53,4.63,136.78,17.42,191.44,1.89c4.08-1.16,8.04-4.62,8.93-8.93c13.38-64.98-0.67-148.6-1.32-215.18
		c-0.62-63.11-0.69-126.21-0.41-189.32c11.98,44.57,24.11,89.11,36.72,133.51c10.61,37.37,21.47,74.68,32.83,111.83
		c7.42,24.25,17.99,95.39,36.17,112.52c35.49,33.45,94.77,23.87,141.68,3.29c4.03-1.77,6.26-6.92,6.33-11.04
		C1000.75,867.48,977.46,812.88,967.22,768.14z M422.04,182.6c53.91-53.35,150.81-72.89,204.61-14.57
		c-50.83,11.86-85.73,62.55-116.09,108.69C492.25,235.94,463.88,202,422.04,182.6z M378.86,70.85
		c52.65-26.67,115.22-31.68,173.32-30.77c58.34,0.92,149.06,5.58,150.54,75.18c1.36,63.78-29.4,49.3-61.93,28.96
		c-83.49-52.2-177.06-49.45-244.71,28.72c-2.84-0.81-5.75-1.53-8.68-2.22c-1.34-1.71-3.17-3.15-5.55-4.13
		C309.35,136.71,310.21,105.62,378.86,70.85z M433.12,958.67c-25.36-0.47-80.58,7.44-101.83-1.9
		c-37.89-16.66-34.81-46.22-39.33-78.14c-15.89-112.16-0.2-237.36-0.29-350.79c-0.01-14.74-20.69-16.93-25.11-3.4
		c-36.12,110.55-79.17,218.38-131.74,322.21c-14.76,29.16-15.95,41.48-44.98,49.73c-20.93,5.95-43.61,0.45-53.8-14.96
		c-20.12-30.43,23.92-124.89,34.39-155.85c32.23-95.34,68.29-188.18,88.32-287.19c12.29-60.75,10.1-104.39,48.42-154.31
		c41.08-53.53,98.23-63.32,160.82-85.59c2.75-0.98,4.78-2.58,6.2-4.5c66.21,13.25,101.28,55.16,119.63,108.43
		c-2.63,5.73-0.04,11.07,4.42,14.1c19.77,70.06,14.54,156.04,13.91,222.38c-1.07,113.39,0.75,226.8,5.47,340.1
		C520.61,951.53,504.58,960.01,433.12,958.67z M965.38,870.07c-4.7,32.08-35.56,52.67-67.43,44.15c-32.79-8.77-34.6-42.07-46-75.12
		c-42.12-122.08-72.29-249.23-105.49-373.94c-3.73-14.01-24.96-11.01-25.11,3.4c-1.11,108.27-1.2,216.54,0.21,324.81
		c0.69,52.71,24.5,132.77-37.26,160.31c-28.76,12.82-94.77,1.06-137.67-3.78c-8.12-181.19,0.13-362.59-8.08-543.42
		c-1.55-34.09-6.71-68.5-16.78-100.25c51.61-75.73,88.42-113.33,192.68-94.5c83.27,15.05,137.39,64.19,154.13,144.8
		c23.48,113.09,33.53,228.69,57.21,341.97C935.75,746.14,972.34,822.6,965.38,870.07z"/>
	<path class="st1" d="M413.16,769.28c-23.66-0.63-46.99,2.3-69.77,8.7c-15.81,4.44-9.1,29.11,6.8,24.65
		c20.71-5.82,41.47-8.36,62.98-7.79C429.62,795.28,429.61,769.72,413.16,769.28z"/>
	<path class="st1" d="M645.28,749.81c-20.02-1.03-40.04-2.07-60.06-3.1c-16.44-0.85-16.4,24.72,0,25.56
		c20.02,1.03,40.04,2.07,60.06,3.1C661.72,776.23,661.67,750.66,645.28,749.81z"/>
</g>
</svg>
