<?xml version="1.0" encoding="utf-8"?>
<!-- Generator: Adobe Illustrator 24.3.0, SVG Export Plug-In . SVG Version: 6.00 Build 0)  -->
<svg version="1.1" id="Vrstva_1" xmlns="http://www.w3.org/2000/svg" xmlns:xlink="http://www.w3.org/1999/xlink" x="0px" y="0px"
	 viewBox="0 0 1000 1000" style="enable-background:new 0 0 1000 1000;" xml:space="preserve">
<path d="M729.84,447.34l-4.96-4.96l-33.48-33.48l-32.96-32.96l-13.6-13.6c-4.39-6.09-7.43-13.05-8.9-20.41
	c-2.46-16.4-8.73-31.98-18.31-45.51c-10.44-9.22-21.45-17.79-32.96-25.63c-11.26-8.23-19.96-19.48-25.11-32.44
	c-8.9-8.9-10.99-23.54-17.79-33.48c-13.31-16.81-29.63-31-48.13-41.85l-52.31-52.31c-10.9-9.46-23.05-17.38-36.1-23.54
	c-11.05-5.56-21.41-12.41-30.86-20.4c-8.79-6.76-18.05-12.88-27.73-18.31l-10.46-10.46l-4.71-4.71l-4.19-4.19
	C316.3,18.12,306.37,8.18,299.05,0.85c-10.82-2.59-22.18,0.8-29.82,8.9c-8.68,10.12-14.47,22.42-16.74,35.57
	c-8.53,22.3-13.64,45.76-15.17,69.58l1.57,8.89l5.23,5.23l6.28,14.65c7.32,7.32,10.47,18.83,17.26,28.77
	c6.83,11.06,16.15,20.37,27.21,27.21c11.07,7.61,21.73,15.82,31.91,24.59l60.16,50.74c18.62,8.95,35.6,20.97,50.22,35.58
	c7.85,7.85,12.56,19.87,20.4,30.86c7.18,11.74,17.04,21.61,28.78,28.77c12.25,6.08,23.82,13.45,34.53,21.97
	c9.42,11.38,16.06,24.82,19.35,39.23c3.11,7.78,7.93,14.76,14.13,20.41l16.22,16.22l36.62,29.3l37.14,29.82l2.87,2.87l-69.2,69.19
	c-5.78,4.32-12.12,7.84-18.83,10.47c-15.86,3.91-30.67,11.23-43.42,21.45c-9.72,10.61-18.8,21.79-27.2,33.48
	c-7.25,10.4-16.28,19.43-26.68,26.68c-8.37,8.37-21.97,12.56-32.44,19.88c-17.07,13.15-32.37,28.45-45.51,45.51l-55.45,55.45
	c-9.88,10.65-18.49,22.41-25.64,35.05c-6.64,10.89-14.17,21.21-22.49,30.87l-19.88,27.2l-3.14,14.65l-4.71,4.71l-4.18,4.18
	c-10.99,8.09-20.69,17.79-28.77,28.78c-4.29,8.72-2.61,19.2,4.19,26.15c7.92,8.13,18.51,13.14,29.82,14.13
	c18.73,2.9,37.78,2.9,56.5,0l5.23-5.23l5.23-5.23l14.12-7.85c9.88-5.55,19.33-11.84,28.25-18.83c10.71-8.02,20.22-17.54,28.24-28.25
	c7.97-11.09,16.53-21.74,25.64-31.92l51.78-61.2c10.51-18.48,23.34-35.53,38.19-50.75l29.82-21.45
	c11.68-8.04,21.78-18.14,29.82-29.82c6.87-12.31,14.75-24.03,23.54-35.05c11.43-9.24,24.34-16.5,38.19-21.45
	c6.67-4.75,12.51-10.59,17.26-17.26l16.74-16.74l30.86-37.14l24.21-24.21l60.23-58.16l5.2-27.08L729.84,447.34z"/>
</svg>
