<?xml version="1.0" encoding="utf-8"?>
<!-- Generator: Adobe Illustrator 24.3.0, SVG Export Plug-In . SVG Version: 6.00 Build 0)  -->
<svg version="1.1" id="Vrstva_1" xmlns="http://www.w3.org/2000/svg" xmlns:xlink="http://www.w3.org/1999/xlink" x="0px" y="0px"
	 viewBox="0 0 1000 1000" style="enable-background:new 0 0 1000 1000;" xml:space="preserve">
<path d="M979.72,382.04c-1.88-20.51-6.12-40.73-12.65-60.26c-3.09-10.95-6.81-21.72-11.15-32.24l-15.06-33.14
	c-26.03-50.22-61.42-95.02-104.25-131.97c-11.86-10.76-24.33-20.82-37.36-30.13l-21.39-13.86c-7.23-4.22-15.06-7.53-22.6-11.15
	l-21.39-8.44l-23.5-8.74l-22.9-8.74c-7.53-2.41-15.06-4.82-22.6-7.83s-14.76-6.33-22.6-9.64l-24.1-9.34
	c-8.44-3.01-16.87-7.23-25.91-9.64c-9.04-2.41-18.38-4.82-28.32-6.93h-4.52L440.1,7.23l-22.9,5.72c-9.04,2.41-18.08,3.92-26.82,6.63
	c-18.95,4.19-37.58,9.73-55.74,16.57c-9.34,3.31-18.68,6.33-27.72,10.24l-26.82,12.65l-13.56,6.33l-12.65,7.83l-25.31,15.97
	c-33.07,23.55-63.39,50.74-90.39,81.05c-13.3,14.8-25.67,30.39-37.06,46.7c-6.03,8.13-11.15,17.17-16.87,25.61
	c-5.72,8.44-11.15,17.17-15.67,26.51c-9.12,16.23-17.17,33.04-24.1,50.32l-10.24,25.91l-7.83,26.81
	c-5.47,18.05-9.6,36.48-12.35,55.14c0,4.52,0,9.34-1.81,14.16v12.05l7.53,112.08c0,7.53,2.11,15.06,3.62,22.3l6.33,26.51
	c1.81,8.89,4.22,17.65,7.23,26.21L46,665.87c1.51,4.22,3.01,8.44,4.82,12.66l5.42,12.05l11.45,24.1c3.92,8.14,9.04,15.37,13.26,22.9
	l13.56,22.6l15.36,21.09c5.42,6.63,9.94,14.16,15.67,20.19l17.17,18.98c9.04,11.75,19.28,23.5,30.13,36.46
	c20.9,28.79,47.2,53.25,77.43,72.01c7.21,4.68,14.89,8.62,22.9,11.75l22.9,9.94c15.37,6.33,30.13,9.94,45.19,14.76
	c7.23,2.29,14.57,4.2,22,5.72l20.79,5.12c13.56,4.22,27.12,6.63,40.67,9.94l20.49,5.12l106.06,8.44c12.65,1.2,25.61-1.51,37.96-3.92
	c11.85-2.42,23.53-5.64,34.95-9.64c11.15-3.62,21.69-6.33,30.13-10.24l30.13-11.15c4.82-1.81,9.34-3.32,13.86-5.42l12.65-6.02
	c15.3-7.21,30.18-15.25,44.59-24.1l18.08-11.45l8.44-5.42l7.23-5.42l23.5-17.78c6.97-5.43,13.61-11.26,19.88-17.48l17.78-18.38
	c11.15-12.35,19.88-25.61,30.13-37.66c16.06-22.87,30.84-46.61,44.29-71.11l9.64-17.78l7.53-18.08c2.11-5.72,4.52-11.75,6.93-17.48
	c2.36-5.46,4.27-11.11,5.72-16.87l8.74-32.84c1.29-4.76,2.3-9.58,3.01-14.46l2.71-12.96l6.33-25.31l3.92-23.8c0-2.71,0-5.12,0-7.53
	C996.27,557.57,982.84,409.45,979.72,382.04z M907.47,552.1c-1.72,8.1-3.68,15.71-5.65,23.08s-5.4,14.24-7.86,21.12l-7.61,19.64
	c-2.7,6.38-5.4,12.28-7.86,18.42c-2.46,6.14-4.42,12.28-6.38,18.42l-7.12,18.66l-7.12,19.15L851,708.02
	c-2.95,6.14-5.65,12.52-9.09,18.42l-11.29,17.43c-7.59,10.62-15.79,20.78-24.55,30.45c-30.11,34.91-66.62,63.74-107.54,84.96
	l-27.01,12.28c-8.57,3.54-17.35,6.57-26.27,9.08c-15.92,5.32-32.4,8.78-49.11,10.31c-22.34,2.54-143.04,13.49-142.9-0.25
	c-1.96,0-3.93,0-6.14,0l-19.4-3.19l-20.63-5.16l-10.56-2.21c-3.97-0.58-7.91-1.4-11.79-2.46l-26.76-7.12
	c-4.7-1.19-9.3-2.75-13.75-4.67c-4.67-1.96-9.58-3.93-14.24-5.65l-14.73-6.14l-14.49-7.86c-19.96-10.96-39.31-23.01-57.95-36.09
	c-9.82-8.35-20.63-15.47-30.69-24.55l-14.98-14.49c-5.06-5.11-9.82-10.53-14.24-16.21l-14.49-19.15l-4.42-5.89l-4.42-6.88
	l-9.33-14.73c-7.21-11.74-13.77-23.87-19.64-36.34l-4.91-10.31c-1.72-3.68-2.95-7.37-4.42-11.29l-9.08-24.55
	c-3.19-6.87-5.4-15.47-8.35-24.55c-3.26-9.31-5.89-18.82-7.86-28.48c-1.96-10.07-4.17-20.63-3.19-30.94l6.88-86.43l4.17-16.7
	c2.7-11.05,4.66-22.1,8.1-33.15l4.17-16.94c1.24-6.05,2.8-12.04,4.66-17.92c3.93-12.28,6.88-24.31,12.03-36.83l8.1-18.66
	c2.55-6.53,5.76-12.78,9.58-18.66c15.29-24.64,35.22-46.07,58.69-63.1c10.56-8.84,20.13-17.19,29.71-24.55l15.47-14
	c4.91-4.67,11.05-8.35,16.45-12.77l17.19-12.52l18.42-11.05c6.14-3.44,12.03-7.61,18.66-10.8l19.64-9.33l9.82-4.42
	c3.44-1.47,6.87-2.7,10.31-3.93l20.63-7.37c6.98-2.45,14.12-4.42,21.36-5.89l21.61-5.16c5.89-1.23,12.03-2.95,18.17-2.95l91.34-6.14
	h9.82c3.93,1.47,7.86,1.47,11.54,1.47c15.2,2.25,30.22,5.61,44.93,10.07l21.85,6.38l21.12,8.35c14.08,5.65,27.78,12.21,41.01,19.64
	c7.61,3.68,14.73,8.1,21.61,12.77c6.88,4.67,14.24,8.84,20.87,13.75c13.29,9.28,26,19.37,38.06,30.2
	c24.7,22.01,46.86,46.71,66.05,73.66l13.01,20.63l6.38,10.31l5.16,11.05l10.31,21.85c3.19,7.37,5.65,14.98,8.35,22.59
	c5.58,14.8,10.09,29.98,13.5,45.42c2.21,7.12,3.44,14.49,5.4,21.85l4.67,18.66l5.89,97.23V552.1z"/>
<path d="M546.99,746.38l3.62-1.69v-1.69l4.13-3.38c0-2.37,4.13-4.73,5.68-7.44c2.09-2.89,2.09-5.9,0-8.79
	c-1.71-3.02-2.92-6.07-3.62-9.13l-4.65-17.92c-4.78-4.45-7.23-9.14-7.23-13.86c0-2.54,3.62-5.24,5.17-8.28
	c2.26-3.06,2.26-6.24,0-9.3c-3.05-2.96-5.12-6.02-6.2-9.13c0.97-3.36,4.33-6.61,9.82-9.47c2.31-1.76,3.37-3.67,3.1-5.58v-5.24
	l-3.62-10.65l-3.62-10.82v-5.75l-4.13-5.58l-3.1-5.41v-5.75V580.2v-12.34l-3.1-12.34c-0.77-4-0.77-8.01,0-12v-5.92
	c-0.66-2-1.88-3.98-3.62-5.92c-3.62-3.51-3.62-7.31,0-10.82c6.11-3.45,11.29-7.07,15.5-10.82c0.42-3.48-0.8-6.96-3.62-10.31V495
	v-20.96c-0.21-4.19-1.42-8.38-3.62-12.51c-0.44-2.96-3.69-5.79-9.3-8.11c-6.38-2.11-15.23-3.22-24.29-3.04
	c-8.98-0.07-17.74,0.89-24.8,2.7c-7.69,2.23-13.7,5-17.57,8.11c-4.14,4.21-6.24,8.6-6.2,13.02c-1.81,5.62-1.81,11.29,0,16.91v4.73
	c0.71,1.67,1.93,3.31,3.62,4.9c4.44,3.14,7.07,6.52,7.75,9.97c-2.76,3.64-6.38,7.2-10.85,10.65c-0.78,4.05,1.9,8.09,7.75,11.66
	c2.34,1.77,3.74,3.66,4.13,5.58v5.58c0,4.06,0,8.11,0,12.17v12.17l-2.58,12.51l-3.62,11.33v5.58c-0.79,1.91-0.79,3.84,0,5.75v5.58
	v5.41v10.82v10.65v4.4c-0.84,1.69-2.78,3.31-5.68,4.73c-6.89,3.05-11.49,6.58-13.44,10.31c0.6,3.18,1.81,6.34,3.62,9.47
	c1.5,3.15,0.24,6.37-3.62,9.3c0,2.87-6.2,5.58-7.75,8.28c-1.73,4.87-0.68,9.8,3.1,14.54v16.91c0.71,3.29,2.8,6.53,6.2,9.64
	c2.71,2.69,4.45,5.47,5.17,8.28c1,2.51,2.56,5,4.65,7.44v3.38v1.52v1.35c0,3.55,0,6.76,0,9.13c4.07,2.16,11.36,3.45,19.12,3.38
	c9.29-0.23,18.22-1.28,25.84-3.04C520.36,752.94,534.47,749.98,546.99,746.38z"/>
<path d="M546.99,348.29l3.62-0.52v-0.52l4.13-1.04c0-0.73,4.13-1.46,5.68-2.29c2.09-0.89,2.09-1.82,0-2.7
	c-1.71-0.93-2.92-1.87-3.62-2.81l-4.65-5.51c-4.78-1.37-7.23-2.81-7.23-4.27c0-0.78,3.62-1.61,5.17-2.55c2.26-0.94,2.26-1.92,0-2.86
	c-3.05-0.91-5.12-1.85-6.2-2.81c0.97-1.03,4.33-2.03,9.82-2.91c2.31-0.54,3.37-1.13,3.1-1.72v-1.61l-3.62-3.28l-3.62-3.33v-1.77
	l-4.13-1.72l-3.1-1.66v-1.77v-3.49v-3.8l-3.1-3.8c-0.77-1.23-0.77-2.46,0-3.69v-1.82c-0.66-0.62-1.88-1.23-3.62-1.82
	c-3.62-1.08-3.62-2.25,0-3.33c6.11-1.06,11.29-2.18,15.5-3.33c0.42-1.07-0.8-2.14-3.62-3.17v-1.46v-6.45
	c-0.21-1.29-1.42-2.58-3.62-3.85c-0.44-0.91-3.69-1.78-9.3-2.5c-6.38-0.65-15.23-0.99-24.29-0.94c-8.98-0.02-17.74,0.27-24.8,0.83
	c-7.69,0.68-13.7,1.54-17.57,2.5c-4.14,1.29-6.24,2.65-6.2,4.01c-1.81,1.73-1.81,3.47,0,5.2v1.46c0.71,0.51,1.93,1.02,3.62,1.51
	c4.44,0.97,7.07,2.01,7.75,3.07c-2.76,1.12-6.38,2.22-10.85,3.28c-0.78,1.25,1.9,2.49,7.75,3.59c2.34,0.54,3.74,1.12,4.13,1.72v1.72
	c0,1.25,0,2.5,0,3.75v3.75l-2.58,3.85l-3.62,3.49v1.72c-0.79,0.59-0.79,1.18,0,1.77v1.72v1.66v3.33v3.28v1.35
	c-0.84,0.52-2.78,1.02-5.68,1.46c-6.89,0.94-11.49,2.02-13.44,3.17c0.6,0.98,1.81,1.95,3.62,2.91c1.5,0.97,0.24,1.96-3.62,2.86
	c0,0.88-6.2,1.72-7.75,2.55c-1.73,1.5-0.68,3.01,3.1,4.47v5.2c0.71,1.01,2.8,2.01,6.2,2.96c2.71,0.83,4.45,1.68,5.17,2.55
	c1,0.77,2.56,1.54,4.65,2.29v1.04v0.47v0.42c0,1.09,0,2.08,0,2.81c4.06,0.67,11.36,1.06,19.12,1.04c9.29-0.07,18.22-0.4,25.84-0.94
	C520.36,350.31,534.47,349.4,546.99,348.29z"/>
</svg>
