<?xml version="1.0" encoding="utf-8"?>
<!-- Generator: Adobe Illustrator 24.3.0, SVG Export Plug-In . SVG Version: 6.00 Build 0)  -->
<svg version="1.1" id="Vrstva_1" xmlns="http://www.w3.org/2000/svg" xmlns:xlink="http://www.w3.org/1999/xlink" x="0px" y="0px"
	 viewBox="0 0 1000 1000" style="enable-background:new 0 0 1000 1000;" xml:space="preserve">
<style type="text/css">
	.st0{fill:#FFFFFF;}
	.st1{fill:#2F2A50;}
</style>
<path class="st0" d="M298,26l363-15l54,38l8,64l7,164l53,334l71,280v45c0,0,4.29,15-4.86,16C840,953,786,966,786,966l-64,6.04
	L673,947l-38-96l-85-348.75L512,393l-12-18l-16,60l-39,172l-41,127l-43,125c0,0-28,80-31,83s-36,30.04-36,30.04L219,988l-45-15.96
	L146,931l30-199l54-232.5L271,302l17-96l4-125l-3-55H298z"/>
<path class="st1" d="M853.01,845.86c-19.32-114.52-50.4-226.5-75.74-339.73c-29.7-132.69-39.57-260.36-42.75-395.6
	c-1.24-52.96,8.13-83.05-36.27-101.73c-45.57-19.17-132.94-1.09-182.48-0.92c-74.35,0.24-148.68,1.38-223.01,3.02
	c-12.5,0.28-15.63,14.97-9.32,22.09c-0.1,0.53-0.19,1.07-0.23,1.64c-6.93,82.29-3.37,163.9-16.83,245.88
	c-13.92,84.8-37.05,168.14-57.13,251.59c-35.35,146.87-65.86,293.84-76.43,444.77c-0.5,7.11,6.33,12.76,12.93,12.93
	c40.87,1.06,131.71,22.52,167.77-0.16c34.47-21.68,48.28-107.59,61.96-143.27C431.17,701.14,478.78,554.8,504.6,401.85
	c34.09,104.07,66.12,208.53,90.33,315.53c14.3,63.21,23.54,207.21,79.88,249.89c29.59,22.42,139.72,20.86,170.65,0.5
	C884.83,941.85,860.13,888.03,853.01,845.86z M806.18,945.19c-22.57,5.2-45.43,7.28-68.57,6.23
	c-70.21-16.41-76.27-69.66-90.98-124.82c-43.33-162.4-80.96-323.42-134.18-483.33c-4.88-14.65-23.55-10.61-25.4,3.44
	C467.08,498,423.68,642.85,370.92,785.66c-22.52,60.95-41.1,162.37-113.71,181.17c-120.51,31.21-91.42-84.95-79.29-160.59
	c21.72-135.4,57.64-267.71,88.74-401.1c12.71-54.52,20.36-107.73,25.83-160.92c1.72-0.23,3.51-0.88,5.31-2.07
	c48.21-31.81,99.19-85.56,102.82-146.29c0.99-16.63-24.88-16.57-25.86,0c-2.76,46.2-42.11,89.26-79.23,116.45
	c5.12-57.8,8.36-115.89,13.38-175.88c61.29-1.29,122.58-2.19,183.88-2.56c-3.48,62.49-3.44,124.87,0.16,187.36
	c0.95,16.55,26.82,16.65,25.87,0c-3.6-62.53-3.64-124.96-0.15-187.48c19.31-0.07,38.62-0.09,57.93-0.04
	c45.82,0.12,103.45-12.36,130.95,39.53c13.45,25.37-0.11,81.9,0.35,112.15c0.1,6.87,0.3,13.73,0.53,20.58
	c-2.53-1.83-5.18-3.53-8.02-5.13c-14.53-8.18-22.92-11.44-33.35-25.17c-7.63-10.06-15.21-20.15-22.82-30.23
	c-5.17-6.84-28.36-29.73-26.78-39.33c2.68-16.28-22.24-23.29-24.94-6.88c-4.83,29.33,27.36,56.58,43.65,78.15
	c8.35,11.06,16.54,24.77,27.4,33.64c12.29,10.05,27.64,11.99,38.79,24.2c2.37,2.59,5.04,3.81,7.69,4.03
	c8.58,135.23,40.26,266.72,71.85,398.6c18.48,77.14,37.01,154.47,49.23,232.9C861.68,924.49,853.37,949.31,806.18,945.19z"/>
</svg>
