<?xml version="1.0" encoding="utf-8"?>
<!-- Generator: Adobe Illustrator 24.3.0, SVG Export Plug-In . SVG Version: 6.00 Build 0)  -->
<svg version="1.1" id="Vrstva_1" xmlns="http://www.w3.org/2000/svg" xmlns:xlink="http://www.w3.org/1999/xlink" x="0px" y="0px"
	 viewBox="0 0 1000 1000" style="enable-background:new 0 0 1000 1000;" xml:space="preserve">
<style type="text/css">
	.st0{fill:#D2D0E4;}
	.st1{fill:#302A50;}
</style>
<polygon class="st0" points="371,965 371,526 376,326 398.8,298 672,252 741.21,230 788,211 691,190 674,148 438,179 192,216 
	189,422 189,854 "/>
<path class="st1" d="M827.79,225.23c-1.89-11.11-4.89-16.67-9-16.89c-0.58-0.17-1.2-0.17-1.78,0v-0.56c-0.57-1.92-1.6-3.68-3-5.11
	c0-8.89-0.78-17.12-3.78-17.23c-20.01-0.89-39.9-2.89-59.79-5.33l-29.79-3.56l-14.89-1.67h-3.11h-1c-0.05-0.33-0.05-0.67,0-1l0,0
	l0,0l0,0l0,0l-5-13.67l-2.67-6.89l-1.44-3.33l-2.89-7.67c-4.22-8.78-8.67-17.45-13.23-25.23c-8.08,1.8-16.05,4.02-23.9,6.67
	c-3.56,1.33-7.34,2.78-10.23,4.22c-1.86,1.3-3.64,2.71-5.33,4.22c-5.44,4.81-10.16,10.39-14,16.56c-1.58-3.53-2.63-7.28-3.11-11.11
	c-0.56-3.89-0.56-8.22-1-12.78c-0.55-4.81-2.06-9.46-4.45-13.67c-2.34-4.24-4.42-8.62-6.22-13.11c-0.79-5.01-0.79-10.11,0-15.12
	c0.13-3.11-0.4-6.22-1.56-9.11c-1.11-2.78-2.45-5.67-3.89-8.67c-3.58-6.44-7.99-12.38-13.11-17.67
	c-5.71-6.52-12.97-11.49-21.12-14.45c-2.22-0.72-4.49-1.32-6.78-1.78c-2.29-0.22-4.6-0.22-6.89,0c-4.28,0.06-8.54,0.66-12.67,1.78
	c-3.79,1.31-7.5,2.83-11.11,4.56c-3.27,1.89-6.36,4.09-9.22,6.56c-5.94,4.36-11.06,9.74-15.12,15.89c-1.18,1.67-2.26,3.42-3.22,5.22
	c-0.78,1.78-1.67,3.45-2.45,5.22c-1.49,3.42-2.71,6.95-3.67,10.56c-1.55,6.79-2.48,13.71-2.78,20.67c0,6.67-1.22,13-1.56,19.23
	l-0.67,9.11c0.18,2.99,0.59,5.96,1.22,8.89c1.72,5.28,1.99,10.92,0.78,16.34c-1.22,4-3.67,8.11-5.11,12.45l-27.67,3.56
	c0-0.67,0.56-1.22,0.78-1.89l0.56-3c0-1.44,0-2.89,0.78-4.45c0.48-3.35,0.77-6.73,0.89-10.11c0.26-3.73-0.07-7.49-1-11.11
	c-1-3.89-2.33-7.78-3-11.67s-3-11.89-6.22-22.23c-2.7-5.46-4.79-11.2-6.22-17.12c0-3.22,0-6.78-0.78-11.11
	c-0.56-3.89-1.8-7.65-3.67-11.11c-2.02-3.57-3.77-7.28-5.22-11.11c-0.74-4.15-0.74-8.41,0-12.56c0.09-2.66-0.36-5.31-1.33-7.78
	c-1-2.22-2-4.67-3.33-7.11c-2.88-5.61-6.55-10.77-10.89-15.34c-4.89-5.53-11.13-9.71-18.12-12.11c-1.82-0.56-3.68-1.01-5.56-1.33
	c-1.92-0.22-3.86-0.22-5.78,0c-3.79,0.11-7.55,0.82-11.11,2.11c-3.05,1.04-6.03,2.3-8.89,3.78c-2.86,1.31-5.58,2.91-8.11,4.78
	c-4.98,3.57-9.27,8.01-12.67,13.11c-1,1.44-1.78,3-2.67,4.45l-2.11,4.33c-1.18,2.87-2.22,5.8-3.11,8.78
	c-1.29,5.7-2.07,11.5-2.33,17.34c0,5.56-1,11.11-1.33,16c0,2.56,0,5.11,0,7.67c0.05,2.51,0.39,5.01,1,7.45
	c1.27,4.51,1.27,9.28,0,13.78c-2.01,4.38-3.68,8.92-5,13.56c-0.21,4.4,0.16,8.81,1.11,13.11c0.16,1.96,0.16,3.93,0,5.89v26.67
	c0.06,5.32,0.47,10.63,1.22,15.89c0.13,2.26,0.54,4.5,1.22,6.67c-46.01,5.67-91.91,11.89-137.37,20.01
	c-3.13,0.55-6.14,1.64-8.89,3.22c-7.11-1-13.89-2.22-20.67-3.67v3.11c0,8.11-0.67,16.12-1.44,25.34c-0.78,9.22-1.33,17.23-2,26.56
	c-0.27,13.2,0.88,26.39,3.45,39.34c0.89,6.34,1.67,12.67,2,18.78c0.33,6.11,0,13.23,0,19.89c0,13.34,0,26.9,0.67,40.57
	c0.67,13.67,1.11,27.45,1.33,41.35c0.22,13.89,0,27.79,0,41.79s0.67,24.9,0.67,38.01v19.01c0,6.45,0,12.89,0.67,19.12
	c0.67,6.22,0.56,12.45,0.89,18.56c0.33,6.11,0,12.23,0,18.23V611c0,12,0,23.9,0,35.68v17.23c-0.11,5.26-0.63,10.5-1.56,15.67
	c-2.87,11.31-4.51,22.9-4.89,34.57c0,11.11,1.22,22.23,1.89,32.01c0.78,9.36,0.78,18.76,0,28.12c-0.89,9.11-2.22,18.34-2.78,27.56
	c-0.62,8.77-0.62,17.57,0,26.34c0,4.11,0.67,7.89,1,11.11v5.11v5.11v10v6.45l21.23,14.45l11.11,7.78l22.9,15.45
	c9,6.03,18.36,11.52,28.01,16.45c8.78,4.67,16,9.34,23.9,14.23c7.89,4.89,15,9.11,22.23,13.11l9.89,5.56l4.45,2.33l3.78,2.33
	c8.11,6.29,16.69,11.93,25.67,16.89l4,1.56v12.78V1000l40.79-14.56l23.23-8.34l14-5.22l28.45-10.45l57.79-21.23
	c9.56-3.45,19.78-7.11,29.67-11.11l29.34-11.89c9.67-3.89,19.34-7.67,28.9-11.11l29.9-11.11l59.91-21.23l66.91-22.67l49.12-17.78
	l0.78-33.34c0-22.78,2-45.35,3-67.57l1.67-33.34c0-11.11,0-22.23,0-33.34c-0.99-20.35-0.51-40.74,1.44-61.02
	c2.33-19.45,6.56-39.34,8.11-60.46c1.56-21.12,0.78-40.12,0.67-58.24c0-9.11,0-17.89,0-26.34l0.89-25.79
	c1.22-33.34,2.22-64.91,3.22-92.36c1-27.45,0.89-51.57,1-70.46C830.11,255.73,829.52,240.42,827.79,225.23z M640.63,155.87
	l5.56-1.33l3.56-0.89l7.45-1.56c1.53,2.7,2.9,5.48,4.11,8.34l2.56,5.45l2.89,6.67c1.89,4.45,3.78,8.89,5.56,13.34
	c2.67,6.45,5.22,12.78,7.89,19.12l15,2.33l5.33,1l3.89,0.78l7.45,1.78l15.34,3.45l14,3.33c-3.37,2.71-7.11,4.92-11.11,6.56
	c-4.45,1.22-10.34,0-16,1.11c-5.69,1.47-10.92,4.33-15.23,8.34l-3.45,2.33c-0.56,0.27-1.08,0.6-1.56,1h-0.89l0,0l-7.34,1.11
	c-5.82,0.53-11.61,1.39-17.34,2.56c-5.78,1.11-11.11,2.33-17.56,3.22l-18.12,1.56h-4.78c2.9-2.92,5.4-6.21,7.45-9.78
	c0.46-0.85,0.83-1.74,1.11-2.67l0.67-2.67l0.89-5.45c0.62-4.01,0.99-8.06,1.11-12.11c0.3-4.37-0.08-8.75-1.11-13
	c-1.22-4.67-2.78-9.22-3.56-13.89c-0.78-4.67-3.56-13.89-7.11-26.23L640.63,155.87z M518.37,119.75c0-5.78,0.89-11.11,0.89-17
	c0.16-5.41,0.98-10.79,2.45-16c1.7-4.63,4.14-8.94,7.22-12.78c2.72-3.06,5.95-5.62,9.56-7.56c1.7-0.89,3.49-1.6,5.33-2.11l5-1.89
	h2.33c0.74-0.11,1.49-0.11,2.22,0h2l1.89,0.78c2.8,1.44,5.17,3.59,6.89,6.22c2.34,3.44,4.21,7.18,5.56,11.11
	c0.78,2,1.56,4.11,2.22,6.45c0.44,2.24,0.44,4.54,0,6.78c-1.4,5.25-1.7,10.74-0.89,16.12c1.39,4.54,3.06,9,5,13.34
	c1.57,3.73,2.4,7.73,2.45,11.78c0,4.11,0,8.34,0,12.45c1.09,7.05,2.99,13.95,5.67,20.56c2.89,11.78,4.56,20.56,5.45,24.9
	c1.01,4.71,2.54,9.29,4.56,13.67c1.57,3.8,2.77,7.75,3.56,11.78c1,3.89,2,7.45,3,11.11l1.67,4.78l0.78,2.11v2c0,3.56,0,7,0.67,9.89
	l-4,0.89l-7.78,1.78l-7.89,0.89l-15.78,1.78l-15.12,1.78l-7.45,0.89c-2.38,0-4.74-0.38-7-1.11c-4.88-2.21-10.2-3.31-15.56-3.22
	c-1.78,0-3.45,0.67-5.11,1c1.33-2.34,2.44-4.8,3.33-7.34c1.62-6.4,2.48-12.96,2.56-19.56c0.22-8.43-0.15-16.86-1.11-25.23v-7.22
	c-0.26-2.56-0.74-5.09-1.44-7.56c-1.7-4.83-2.67-9.89-2.89-15c1.16-5.3,2.61-10.53,4.33-15.67c0.44-6.07-0.55-12.16-2.89-17.78
	c-0.86-2.78-1.42-5.65-1.67-8.56V119.75z M367.33,141.54c0-2,0-4,0-6c-0.28-2.14-0.73-4.26-1.33-6.34
	c-1.4-4.01-2.18-8.21-2.33-12.45c0.97-4.59,2.19-9.11,3.67-13.56c0.11-5.01-0.88-9.97-2.89-14.56c-0.72-2.31-1.17-4.7-1.33-7.11
	v-7.22c0-4.89,0.78-9.67,0.78-14.34c0.13-4.52,0.84-9,2.11-13.34c1.41-3.83,3.43-7.39,6-10.56c2.38-2.48,5.16-4.54,8.22-6.11
	c1.42-0.7,2.91-1.26,4.45-1.67c1.38-0.6,2.79-1.12,4.22-1.56h1.89h1.89c1.16,0.19,2.29,0.57,3.33,1.11
	c2.33,1.19,4.32,2.95,5.78,5.11c1.91,2.76,3.48,5.75,4.67,8.89c0.67,1.78,1.22,3.56,1.89,5.45c0.33,1.87,0.33,3.79,0,5.67
	c-1.19,4.38-1.46,8.96-0.78,13.45c1.15,3.8,2.56,7.51,4.22,11.11c1.39,3.19,2.11,6.63,2.11,10.11c0,3.45,0,7,0,10.45
	c0.85,5.87,2.42,11.62,4.67,17.12c2.45,9.89,3.89,17.12,4.67,20.78c0.81,3.84,2.08,7.57,3.78,11.11c1.29,3.17,2.29,6.44,3,9.78
	c0.78,3.22,1.67,6.34,2.45,9.11l1.33,4l0.67,1.78v1.67c0.05,0.44,0.05,0.89,0,1.33c-23.34,2.89-46.79,5.56-70.24,8.34
	c0-1.11,1-2.33,1.56-3.56c1.3-5.35,2-10.83,2.11-16.34C368.21,155.98,368.02,148.74,367.33,141.54z M794.78,341.59
	c-1.56,27.67-2,59.13-2.56,93.36c0,8.67,0,17.56,0,26.67c0,9.34,0,18.78,0.56,28.12c0.67,18.67,1.78,37.68,1,55.57
	c-0.78,17.89-4.45,37.9-6.34,59.91c-1.17,22-0.95,44.05,0.67,66.02c0,11.11,0.78,21.23,0,31.68c-0.78,10.45-0.78,22.23-1.22,33.34
	c-0.67,22.23-2.11,44.46-2.33,67.8v12.23l-5.56,2.11l-8.89,3.22l-22.9,8l-66.69,22.23l-60.57,19.34l-30.34,8.67
	c-10.34,3.45-20.45,7.11-30.34,11.11l-29.12,11.11l-28.9,9.78l-58.13,19.45L395,947.54l-7.56,2.45v-3.78
	c0.15-1.87,0.41-3.72,0.78-5.56l0.67-2.67v-1.22l0,0l0,0l0,0c2.95-19.14,4.7-38.44,5.22-57.79c0-19.12-0.89-36.9-1.33-53.57
	c-0.84-15.66-0.84-31.35,0-47.01c0.89-15.34,2.33-30.68,3.11-46.12c1.44-31.68-0.89-58.91-1.22-81.47c0-46.68-0.67-80.69-0.89-97.92
	c0-19.67-1.33-37.9-2.45-54.24s-1.56-30.9-2-46.57s0.22-31.45,0.22-44.68L388,388.72v-8.34v-7.56c0-20.23,0.78-38.68-0.78-51.24
	c-1.56-12.56-4.56-19.56-7.56-19.56s-6.11,6.45-10.11,17.56c-5.91,16.38-10.48,33.22-13.67,50.35c0,3-1,6-1.33,9.22l-1.67,9.56
	c-0.56,6-1,12.34-1.56,19.01c-0.89,13.11-1.67,27.34-2.33,42.46c-0.67,15.12-1.33,32.45-0.67,49.46c0.67,17,1.56,34.23,1.44,51.35
	s1.33,52.57,2.45,100.03c1,24.67,3.67,50.9,2.89,77.8c0,14.12-1.44,29.45-2,46.12c-0.56,16.67,0,35.01,0.89,52.24
	c0.89,17.23,2.45,34.79,2.67,51.9c0.22,17.12-2.11,33.34-3.89,53.24v1.78v3.22v6.89v3.11c-3.24-5.57-6.96-10.85-11.11-15.78
	c-1.13-1.49-2.36-2.9-3.67-4.22l-4-3.45l-8.45-7.67c-5.89-5.33-12.45-11.11-19.45-16.56c-7.55-6.33-15.54-12.12-23.9-17.34
	c-8.78-5.45-17.67-10.45-26.01-16.34l-23.34-14.89l-11.11-7.45h-0.78h-1h-1.11v-0.67v-0.89l0,0l0,0l0,0v-2.89l-1.22-11.11
	c-0.99-7.92-1.36-15.91-1.11-23.9c0-8.45,1.11-17.67,1.67-27.56c0.44-10.43-0.01-20.88-1.33-31.23c-1.22-10.34-2.67-20.67-3.11-30.9
	c0.33-10.7,1.49-21.37,3.45-31.9c0.94-6.14,1.31-12.35,1.11-18.56l-2.89-19.67c0-11.78-1.22-23.78-1.89-35.9
	c-0.67-12.11-1.11-24.34-1.78-36.68c0-6.11-0.56-12.67-1.11-19.01c-0.56-6.34-1.22-12.45-1.89-18.78
	c-0.67-6.34-1.22-12.34-1.44-18.45l-0.67-18.89c0-12.67-0.78-25.34-1.22-38.01s-0.67-27.9-1.11-41.79l-1.67-41.23
	c-0.67-13.56,0-27.01,0-40.34c0-6.67,0-13.34,0-19.89s-0.78-13.45-1.44-19.89c-1.73-12.12-1.92-24.4-0.56-36.57
	c0.14-3.9,1.21-7.71,3.11-11.11c1.07-1.52,1.97-3.16,2.67-4.89l0,0c1.81,0.53,3.67,0.83,5.56,0.89h5h2
	c5.33,0.89,10.45,1.67,15.45,2.78l15,3.45l53.9,11.89l3.45,0.78h1.56l12.89,8.78l12.67,8.56c7.43,5.5,15.54,10.02,24.12,13.45
	c6.45,2.11,11.11,1.56,13.67-1.67s1.67-7.67-1.56-13.45c-4.98-8.09-10.91-15.55-17.67-22.23c-3.56-3.45-7.45-7-11.89-11.11
	l-6.89-5.67l-4-3.11l-7-5.45l-12.23-3c-11.78-3-24.78-5.67-38.79-8.34C327.87,209.22,384,198,440.02,186.1
	c0.98,0.43,2.04,0.66,3.11,0.67c2.21-0.23,4.3-1.12,6-2.56l39.12-6.67c0,3.45,0.89,6.78,1.44,10c0.34,2.32,0.53,4.66,0.56,7v31.9
	c0.03,6.36,0.47,12.71,1.33,19.01c0.17,3.87,1.16,7.65,2.89,11.11c-2.98-0.53-5.98-0.91-9-1.11c-7.05,0.45-14.01,1.87-20.67,4.22
	l-24.9,4.33c-4.68,0.94-9.23,2.44-13.56,4.45c-3.59,1.53-7.31,2.76-11.11,3.67c-3.76,0.92-7.47,2.03-11.11,3.33l-4.67,1.78l-2,0.89
	l-2,0.56c-4.46,0.09-8.87,0.99-13,2.67c-2.59,1.52-4.13,4.34-4,7.34c0.89,3.7,2.95,7.02,5.89,9.45c4.32,4.6,9.31,8.53,14.78,11.67
	c0.81,0.43,1.67,0.76,2.56,1l2.56,0.56l5.11,0.78c3.45,0,7.22,0.78,11.11,0.89c4.3,0.24,8.61-0.17,12.78-1.22
	c4.23-1.37,8.53-2.48,12.89-3.33l25.34-6c6.25-2.82,12.88-4.73,19.67-5.67c3.67,0,7.67,0,12,0c4.55-0.04,9.04-0.99,13.23-2.78
	c4.2-1.88,8.55-3.4,13-4.56c4.79-0.18,9.57,0.5,14.12,2c2.68,0.55,5.44,0.55,8.11,0l7.45-1.78l15.12-3.56l15.56-3.45
	c2.56-0.67,5.33-1.11,8-2l7.78-2.78c2.52-1.01,5.12-1.8,7.78-2.33l8.11-1.56l16.12-3l17.78-3.11l17.56-3.67
	c5.74-0.93,11.53-1.52,17.34-1.78l8.78-0.78h1.44c1.62-0.56,3.18-1.27,4.67-2.11l3.78-2.11c4.18-3.34,9.24-5.39,14.56-5.89
	c5.58,0.5,11.2,0.5,16.78,0c4.87-1.39,9.51-3.49,13.78-6.22c1.99-1.11,4.07-2.04,6.22-2.78l6.34-2.11l23.12-7.34
	c3.33-1.22,6.34-2.45,9.11-3.67c3.34-0.05,6.49-1.6,8.56-4.22l1.33-0.67c-3.83,14.6-6.58,29.46-8.22,44.46
	c-3,20.45-4.22,44.35-5.56,72.02L794.78,341.59z"/>
</svg>
