<?xml version="1.0" encoding="utf-8"?>
<!-- Generator: Adobe Illustrator 24.3.0, SVG Export Plug-In . SVG Version: 6.00 Build 0)  -->
<svg version="1.1" id="Vrstva_1" xmlns="http://www.w3.org/2000/svg" xmlns:xlink="http://www.w3.org/1999/xlink" x="0px" y="0px"
	 viewBox="0 0 1000 1000" style="enable-background:new 0 0 1000 1000;" xml:space="preserve">
<style type="text/css">
	.st0{fill:#FFFFFF;}
	.st1{fill:#2F2A50;}
</style>
<path class="st0" d="M49,930l-30-19l65-612l42-151l96-76l104-38l50,5.03L419,74l53,50l61,3l44-54l36-48l94,20l102,57l54,42l35,67
	l20,187l37,271l23,180l-5,58c0,0-19,14-31,17s-50,13-54,14s-48,0-48,0l-32-228l-23-165l-29-102l-9,51l-24,120l-19,101l1,101l24,91
	l-4,48l-50,23.73L603,985H454l-137,8l-74-14.27L256,908l16-105l13-141l-4-97l-16-137l-17-25l-20,142l-23,133l-19,118l-16,84l-21,57
	l-48,3L49,930z"/>
<path class="st1" d="M989.29,917.02c-13.53-205.37-36.69-409.83-71.35-612.73c-10.04-58.8-8.04-148.69-53.6-192.91
	c-55.81-54.17-176.03-79.74-247-109.9c-6.14-2.61-14.18-2.19-17.68,4.63c-35.71,69.75-70.99,143.96-157.29,69.77
	c-29.2-25.1-37.86-54.07-78.13-59.77C297.58,6.7,179.51,72.74,135.21,120.6c-73.08,78.96-68.9,209.59-81.27,310.5
	C34.38,590.64,20.41,750.7,10.72,911.13c-0.52,8.64,6.23,12.76,12.96,12.4c-1.74,7.17,2.26,16.66,11.91,17.81
	c38.19,3.41,75.67,10.35,112.45,20.8c6.51,1.62,14.35-2.07,15.89-9.02c36.47-164.71,66.42-330.45,90.09-497.37
	c30.54,176.37,19.4,351.83-33.11,525.58c-2.48,8.2,4.27,16.19,12.46,16.35c106.57,2.13,213.27,4.33,319.79-1
	c36.25-1.81,162.96,8.82,190.27-25.27c31.49-39.31-25.22-149.61-26.09-194.94c-1.77-92.67,18.45-187.96,37.65-280.43
	c23.79,150.56,47.59,301.13,71.38,451.69c1.19,7.5,9.65,9.89,15.89,9.02c46.68-6.46,91.95-15.43,137.56-27.27
	C984.99,928.13,989.65,922.57,989.29,917.02z M960.85,877.51c-9.01,31.06-40.89,50.5-73.44,46.44
	c-43.75-5.46-38.59-26.15-48.81-63.25C800,720.65,791.62,563.45,768.93,419.83c-1.98-12.52-22.61-12.14-24.92,0
	c-23.55,124.08-64.36,264.14-50.74,391.47c6.94,64.91,55.13,121.7-27.79,150.88c-61.68,21.71-160.32,11.19-225.11,11.81
	c-38.98,0.37-168.08,19.04-184.12-20.34c-4.45-10.92,21.94-92.24,24.33-105.46c4.28-23.65,8.21-50.97,10.83-74.86
	c14.69-133.91,3.64-266.65-27.48-397.38c-3.66-15.39-23.64-9.92-25.38,3.43c-15.62,120.14-34.2,239.81-56.63,358.87
	c-8.47,44.96-9.85,110.69-30.52,151.4c-25.56,50.35-65.37,31.83-115.82,25.83c0.52-1.3,0.86-2.76,0.96-4.37
	c8.47-140.37,20.17-280.46,36.16-420.19c8.85-77.39,16.79-155.68,30.51-232.36c18.19-101.73,79.67-158.44,173.73-192.57
	c64.1-23.26,100.08-21.67,147.15,28.14c17.04,18.03,37.82,44.65,63.78,50.87c56.89,13.64,77.52-36.43,106.79-73.78
	c22.19-28.33,2.68-28.78,45.68-32.14c24.17-1.89,68.57,29.14,90.14,38.3c81.63,34.69,131.36,62.26,148.67,155.78
	c27.41,148.12,48.96,297.28,64.6,447.1C949.26,733.07,975.57,826.78,960.85,877.51z"/>
</svg>
