<?xml version="1.0" encoding="utf-8"?>
<!-- Generator: Adobe Illustrator 24.3.0, SVG Export Plug-In . SVG Version: 6.00 Build 0)  -->
<svg version="1.1" id="Vrstva_1" xmlns="http://www.w3.org/2000/svg" xmlns:xlink="http://www.w3.org/1999/xlink" x="0px" y="0px"
	 viewBox="0 0 1000 1000" style="enable-background:new 0 0 1000 1000;" xml:space="preserve">
<path d="M38.45,548.74l5.49,3.84h5.49l10.98,4.39c7.69,0,15.38,4.39,24.16,6.04c9.39,2.22,19.17,2.22,28.55,0
	c9.81-1.82,19.71-3.1,29.65-3.84l58.21-4.94c14.47-5.08,29.69-7.68,45.03-7.69c8.24,0,17.02,3.84,26.91,5.49
	c9.92,2.4,20.28,2.4,30.2,0c9.62-3.24,19.56-5.45,29.65-6.59c10.92,1.03,21.46,4.6,30.75,10.43c5.71,2.45,11.91,3.58,18.12,3.29
	h17.02l34.59-3.84l35.14-3.84h18.67l18.12-4.39l17.57-3.29h18.67h36.79h40.09l40.09-3.29c12.98-0.82,26-0.82,38.99,0h19.22
	c6.51-0.71,12.94-1.99,19.22-3.84c11.4-3.85,23.74-3.85,35.14,0c11.22,6.49,22.98,12,35.14,16.47c11.3,0.45,22.6-0.85,33.5-3.84
	h15.38h68.09c13.62-0.22,27.21-1.51,40.63-3.84c9.6-0.47,18.82-3.92,26.36-9.88c6.86-6.78,10.46-16.18,9.88-25.81
	c0.21-9.54-2.89-18.85-8.79-26.36c-7.23-8.17-16.25-14.56-26.36-18.67c-13.66-4.4-27.93-6.63-42.28-6.59
	c-18.25-1.92-36.66-1.92-54.91,0h-15.38c-5.42,0.76-10.75,2.05-15.92,3.84c-10.2,4.72-21.18,7.51-32.4,8.24
	c-11.82-2.93-23.38-6.78-34.59-11.53c-13.15-0.83-26.27,2.02-37.89,8.24c-5.75,2.49-11.87,3.97-18.12,4.39h-18.12
	c-13.18,0-26.36,0-39.54,0h-39.54l-40.63-2.75l-36.79-3.84h-18.12c-6.2-0.84-12.47-0.84-18.67,0h-18.12H466.2h-35.14h-34.59h-14.28
	c-5.5-0.89-10.74-2.95-15.38-6.04c-9.89-7.32-21.37-12.21-33.5-14.28c-10.32,0.64-20.59,1.92-30.75,3.84
	c-10.23,1.59-20.7,0.26-30.2-3.84c-9.33,0-18.12-6.59-26.91-8.24c-15.81-1.84-31.82-0.72-47.22,3.29h-54.91
	c-10.68,0.76-21.22,2.98-31.3,6.59c-8.72,2.88-17.75,4.72-26.91,5.49c-8.16,1.06-16.24,2.72-24.16,4.94H49.98h-4.94h-4.39
	c-11.53,0-21.96,0-29.65,0c-7.03,4.32-11.22,12.07-10.98,20.32c0.76,9.88,4.17,19.36,9.88,27.46
	C17.12,520.44,26.75,535.44,38.45,548.74z"/>
</svg>
