<?xml version="1.0" encoding="utf-8"?>
<!-- Generator: Adobe Illustrator 24.3.0, SVG Export Plug-In . SVG Version: 6.00 Build 0)  -->
<svg version="1.1" id="Vrstva_1" xmlns="http://www.w3.org/2000/svg" xmlns:xlink="http://www.w3.org/1999/xlink" x="0px" y="0px"
	 viewBox="0 0 1000 1000" style="enable-background:new 0 0 1000 1000;" xml:space="preserve">
<path d="M990.84,491.92c-7.62-6.67-16.58-11.61-26.29-14.49c-13.68-3.43-27.74-5.06-41.84-4.83c-17.86-1.28-35.79-1.28-53.65,0
	h-15.56l-16.09,3.22c-10.44,3.38-21.25,5.54-32.19,6.44c-11.81-2.3-23.45-5.34-34.87-9.12c-13.01-0.58-25.99,1.61-38.09,6.44
	c-5.98,1.71-12.08,2.97-18.24,3.75h-20.39c-13.04-0.8-26.12-0.8-39.16,0c-13.41,0-26.82,0-40.23,0h-40.23l-35.95-11.27h-3.61v-5.09
	v-34.33v-33.8v-13.95c0.87-5.37,2.88-10.49,5.9-15.02c7.15-9.67,11.92-20.87,13.95-32.72c-0.62-10.08-1.88-20.12-3.76-30.04
	c-1.56-9.99-0.25-20.22,3.76-29.5c0-9.12,6.44-17.7,8.04-26.29c1.79-15.44,0.7-31.09-3.22-46.13v-53.65
	c-0.74-10.44-2.91-20.73-6.44-30.58c-2.81-8.52-4.61-17.34-5.36-26.29c-1.04-7.97-2.66-15.86-4.83-23.6V60.35v-4.83v-4.29
	c0-11.27,0-21.46,0-28.97c-4.22-6.87-11.79-10.96-19.85-10.73c-9.65,0.74-18.92,4.08-26.82,9.66c-15.8,7.06-30.45,16.47-43.45,27.9
	l-3.76,5.36v5.37l-4.29,10.73c0,7.51-4.29,15.02-5.9,23.6c-2.17,9.17-2.17,18.73,0,27.9c1.78,9.58,3.03,19.25,3.76,28.97l4.83,56.86
	c4.96,14.14,7.5,29.01,7.51,43.99c0,8.05-3.75,16.63-5.36,26.29c-2.34,9.7-2.34,19.81,0,29.51c3.16,9.4,5.32,19.11,6.44,28.97
	c-1.01,10.67-4.5,20.96-10.19,30.04c-2.39,5.58-3.5,11.63-3.22,17.7V401l3.76,33.8l3.76,34.33v2.94h-70.96
	c-5.18-0.75-10.23-2.19-15.02-4.29c-10.14-6.13-21.49-9.97-33.26-11.27c-10.43,0.46-20.81,1.53-31.11,3.22
	c-9.05,1.62-18.31,1.62-27.36,0c-8.59,0-17.7-4.83-26.82-6.44c-15.49-2.01-31.18-2.01-46.67,0h-56.86
	c-10.53,0.39-20.97,2.01-31.12,4.83c-8.99,2.17-18.14,3.61-27.36,4.29l-24.14,3.76l-9.12,5.9h-4.83h-4.29
	c-9.78-1.49-19.73-1.49-29.51,0C4.59,474.35,0.08,480.58,0,487.63c-0.11,8.23,2.75,16.23,8.04,22.53
	c8.11,11.09,17.88,20.86,28.97,28.97h5.36h5.37l11.26,3.22c7.91,2.22,15.98,3.84,24.14,4.83c9.61,1.38,19.36,1.38,28.97,0
	c9.77-1.6,19.62-2.68,29.51-3.22l57.94-4.83c14.86-4.09,30.19-6.25,45.6-6.44l26.29,4.29c10.11,1.87,20.47,1.87,30.58,0
	c9.83-2.79,19.88-4.76,30.04-5.9c10.6,1.12,20.94,4.02,30.58,8.58c5.86,0.98,11.84,0.98,17.7,0h17.17l34.87-3.22h24.82v4.03v35.95
	v39.16l3.22,39.16c0.8,12.68,0.8,25.41,0,38.09v18.77c0.69,6.36,1.94,12.64,3.76,18.78c3.76,11.13,3.76,23.19,0,34.33
	c-6.34,10.96-11.73,22.45-16.1,34.33c-0.44,11.04,0.83,22.08,3.76,32.72v15.02v66.52c0.22,13.31,1.47,26.58,3.76,39.7
	c0.46,9.38,3.83,18.38,9.66,25.75c6.62,6.7,15.81,10.22,25.22,9.66c9.32,0.21,18.42-2.83,25.75-8.59
	c7.98-7.06,14.22-15.88,18.24-25.75c4.3-13.35,6.47-27.28,6.44-41.31c1.88-17.83,1.88-35.81,0-53.65v-15.02
	c-0.74-5.3-2-10.51-3.76-15.56c-4.61-9.96-7.34-20.69-8.05-31.65c2.86-11.55,6.63-22.84,11.27-33.8
	c0.81-12.85-1.97-25.67-8.05-37.02c-2.43-5.61-3.88-11.6-4.29-17.7v-17.7c0-12.87,0-25.75,0-38.62v-38.63l2.68-39.7l3.76-35.94
	v-4.57h6.29h36.48H618h39.7c13.04-0.81,26.12-0.81,39.16,0h19.31c6.52-0.1,13.01-1,19.31-2.68c11.62-2.93,23.78-2.93,35.4,0
	c11.2,5.23,22.88,9.36,34.87,12.34c11.2,1.66,22.59,1.66,33.8,0h15.02h68.67c13.65-0.1,27.27-1.17,40.77-3.22
	c9.3,0.02,18.41-2.58,26.29-7.51c6.46-4.48,10.12-12,9.66-19.85C1000.1,504.49,996.76,497.02,990.84,491.92z"/>
</svg>
