<?xml version="1.0" encoding="utf-8"?>
<!-- Generator: Adobe Illustrator 24.3.0, SVG Export Plug-In . SVG Version: 6.00 Build 0)  -->
<svg version="1.1" id="Vrstva_1" xmlns="http://www.w3.org/2000/svg" xmlns:xlink="http://www.w3.org/1999/xlink" x="0px" y="0px"
	 viewBox="0 0 1000 1000" style="enable-background:new 0 0 1000 1000;" xml:space="preserve">
<style type="text/css">
	.st0{fill-rule:evenodd;clip-rule:evenodd;fill:#FFFFFF;}
	.st1{fill-rule:evenodd;clip-rule:evenodd;fill:#EEAF81;}
</style>
<path class="st0" d="M235.65,566.35c-35.76,46.26-59.87,101.96-67.49,162.9H0C8.86,622.2,51.54,524.99,116.84,447.52L235.65,566.35z
	"/>
<path class="st0" d="M458.16,270.76V440.1c-60.78,7.67-116.08,31.36-162.13,67.15L176.56,387.72
	C253.93,322.21,351.12,279.6,458.16,270.76z"/>
<path class="st0" d="M704,507.25c-46.08-35.79-101.36-59.48-162.14-67.15V270.76c107.04,8.85,204.24,51.46,281.6,116.97L704,507.25z
	"/>
<path class="st1" d="M831.86,729.24c-7.62-60.94-31.74-116.64-67.49-162.9l118.8-118.82C948.49,524.99,991.16,622.2,1000,729.24
	H831.86z"/>
</svg>
