<?xml version="1.0" encoding="utf-8"?>
<!-- Generator: Adobe Illustrator 24.3.0, SVG Export Plug-In . SVG Version: 6.00 Build 0)  -->
<svg version="1.1" id="Vrstva_1" xmlns="http://www.w3.org/2000/svg" xmlns:xlink="http://www.w3.org/1999/xlink" x="0px" y="0px"
	 viewBox="0 0 1000 1000" style="enable-background:new 0 0 1000 1000;" xml:space="preserve">
<g>
	<path d="M453.22,273.15l4.21-3.5l2.77-4.66l4-3.33l8.01-6.66l11.87-9.87c1.71-0.49,4.11-0.25,7.11,0.71
		c7.61,3.27,13.72,4.62,17.98,3.97c2.08-2.15,3.6-4.83,4.55-8.04c1.33-2.65,4.34-3.7,8.84-3.09c3.57-0.13,8.19,0.76,11.56,0.32
		c4.42-2.11,7.28-5.76,8.54-10.88l9.24-13.82c1.9-2.37,2.81-5.66,2.72-9.83c0.05-3.55,0.86-6.44,2.42-8.63
		c1.98-1.65,2.8-4.22,2.46-7.72l0.66-3.85l1.1-0.92l0.97-0.8c3.37-0.87,5.27-3.25,5.6-7.02c-0.37-2.98-4.38-8.68-10.01-14.36
		c-0.04-0.04-0.08-0.08-0.12-0.12c-0.14-0.14-0.25-0.28-0.39-0.42c-6.79-6.24-13.68-11.52-19.53-14.97
		c-11.29-7.72-21.75-13.89-30.94-18.26l-3.53-1.32l-2.81-0.5l-4.84-0.23c-1.48-0.12-2.56,0.19-3.9,0.22
		c-0.72-2.87-0.47-6.48,1.16-11.05c0.65-2.72,0.24-4.68-1.2-5.79l-3.5-3.42l-9.81-4.97l-10-5.16c-1.21-1.18-2.55-2.49-5.52-2.32
		l-6.94-1.14l-6.02-1.79l-3.82-3.73l-7.7-7.53l-8.4-8.22l-10.61-6.27c-3.45-2.08-6.19-4.76-8.21-8.03l-4.01-3.92
		c-1.55-1.16-3.65-1.84-6.28-2.03c-5.61,0.33-8.73-1.66-9.09-5.81c2.3-6.19,3.64-11.74,4.02-16.58c-2-2.59-5.21-4.17-9.56-4.73
		c-1.92-0.31-3.46-0.95-4.6-1.93l-14.33-14c-3.04-2.6-6.81-4.58-11.3-5.92c-2.22-1.67-6.45-1.59-12.34,0.24
		c-5.32,2.03-12.83,6.88-19.9,12.86c-7.15,5.89-13.24,12.22-16.52,17.19c-4.39,6.55-6.96,12.06-7.56,16.19
		c0.02,5.17,1.42,9.29,4.19,12.3c3.27,4.12,7.63,7.35,13.03,9.66l3.18,3.11c1.69,0.69,3.79,1.03,6.27,1
		c5.3-0.49,9.36,0.2,12.07,2.06c0.45,4.05,0.32,8.54-0.4,13.46c1.97,3.27,6.52,4.39,13.34,3.3c3.05-0.3,5.47,0.01,7.22,0.91
		l4.01,3.92c2.67,2.61,5.41,5.29,8.21,8.03c2.8,2.74,5.54,5.41,8.34,8.15l8.12,8.45l5.09,9.59l3.88,3.8l3.88,3.8l5.17,2.49
		l3.69,3.61l5,4.89c-21.43,5.66-45.65,12.4-54.31,15.35l-23.64,7.73l-23.05,9.86l-11.53,4.8l-10.93,6.13
		c-7.39,4-14.48,8.26-21.57,12.52c-28.04,18.21-53.71,39.21-76.54,62.6c-11.92,11.38-23.07,23.39-33.39,35.96
		c-5.32,6.4-9.75,13.32-14.48,19.72c-4.98,6.59-9.52,13.43-13.6,20.51c-7.78,12.48-14.69,25.38-20.69,38.63l-9.16,20.25l-6.8,20.51
		c-4.59,13.98-8.14,28.22-10.64,42.62l-0.89,10.12v11.19c0,7.19,0,14.39,0,21.58c0,14.12,2.36,28.24,3.25,42.09
		c0.89,13.85,4.14,26.64,6.8,41.29l5.32,20.51c1.72,6.77,3.89,13.44,6.5,19.98c4.62,13.22,10.05,26.21,16.26,38.89l10.05,18.65
		c3.34,6.15,7.09,12.11,11.23,17.85l11.53,17.32l13.3,16.25c4.1,5.46,8.54,10.71,13.3,15.72l14.48,14.92
		c7.98,9.06,16.55,18.12,24.82,28.51c17.23,22.92,39.57,42.33,65.61,57.01c12.79,6.83,26.13,12.79,39.89,17.85
		c13,4.8,26.3,7.73,39.01,11.19c3.96,1.17,8.04,1.92,12.1,2.77c-7.83-18.01-15.52-38.22-15.52-38.22l8.62-27.06
		c0,0,3.69-6.66,6.16-6.66c2.46,0,12.31-3.33,14.78-6.66c2.31-3.12,8.51-12.73,9.31-13.98c-2.59-0.5-5.34-0.92-7.66-1.57
		c-10.04-1.7-19.92-4.11-29.55-7.19c-10.24-2.73-20.14-6.38-29.55-10.92c-18.4-10.69-34.19-24.65-46.4-41.03
		c-7.09-8.53-15.66-17.05-23.94-26.64l-12.41-10.92l-13.6-9.59c-3.9-3.99-7.55-8.17-10.93-12.52l-10.05-13.32l-5.32-6.66l-3.25-6.39
		l-8.86-14.39c-2.88-4.8-5.35-9.78-7.39-14.92l-7.39-15.45c-3.55-10.66-7.39-21.31-10.64-32.23c0-5.6-2.36-11.19-3.84-16.78
		c-1.48-5.6-2.66-11.46-3.25-17.32c-2.56-11.52-4.24-23.18-5.02-34.9v-17.32c0.04-5.8,0.53-11.58,1.48-17.32l0.59-17.58l4.73-17.58
		c6.32-23.2,15.44-45.72,27.19-67.13c13.72-23.44,30.59-45.28,50.24-65c9.17-9.97,19.05-19.4,29.55-28.24
		c5.34-4.55,10.97-8.81,16.84-12.79c5.39-4.28,11.11-8.2,17.14-11.72c11.87-7.43,24.55-13.77,37.83-18.92c6.8-2.4,13-5.59,19.8-7.46
		l20.1-6.13l10.05-2.93l9.75-1.76l-1.11,5.5l-1.98,5.43l-4.14,3.44l-8.35,6.95l-9.11,7.58l-6.95,9.56c-2.31,3.11-5.28,5.58-8.91,7.4
		l-4.35,3.62c-1.28,1.39-2.04,3.29-2.26,5.66c0.37,5.06-1.84,7.87-6.44,8.19c-6.87-2.07-13.02-3.28-18.4-3.62
		c-2.87,1.8-4.63,4.69-5.24,8.61c-0.34,1.73-1.06,3.12-2.14,4.15l-15.53,12.91c-2.88,2.74-5.08,6.14-6.57,10.19
		c-1.85,2-1.76,5.81,0.27,11.13c2.25,4.8,7.64,11.57,14.26,17.94c6.53,6.45,13.56,11.93,19.06,14.89
		c7.26,3.95,13.38,6.28,17.96,6.82c5.73-0.02,10.3-1.28,13.64-3.77c4.57-2.95,8.15-6.87,10.72-11.75l3.45-2.87
		c0.77-1.53,1.14-3.42,1.11-5.66c-0.55-4.78,0.22-8.44,2.28-10.88c4.49-0.41,9.48-0.29,14.93,0.36c3.62-1.77,4.87-5.87,3.66-12.03
		c-0.33-2.75,0.01-4.94,1-6.51l4.35-3.62c2.9-2.41,5.87-4.88,8.91-7.4c3.04-2.53,6-4.99,9.04-7.52l9.37-7.32l10.64-4.59
		L453.22,273.15z"/>
	<path d="M915.01,551.69c4.21-43.28,1.58-83.21-1.98-111.56c-0.14-2.46-0.11-4.93-0.39-7.39c-1.07-10.04-3.16-19.94-5.72-29.74
		c-0.72-3.39-1.2-5.4-1.2-5.4l-0.42-0.25c-1.02-3.48-1.8-7-3-10.44c-2.96-7.99-5.61-16.52-9.46-25.04l-13-26.64
		c-21.91-38.96-52.02-73.71-88.66-102.3c-10.33-8.2-21.19-15.85-32.51-22.91l-19.8-9.59c-6.29-3.21-12.81-6.06-19.5-8.53l-19.8-7.99
		l-19.8-6.39l-19.8-6.66c-6.5-1.6-13-3.73-19.21-5.86c-5.42-1.86-11.16-4.38-17.03-6.75l4.74,15.83c6.42,8.99,8.42,18.12,5.96,27.22
		c-3.72,5.3-11.17,10.43-15.64,15.56c-4.98,3.91-7.48,7.97-7.57,12.05c1.6,0.73,3.12,1.52,4.72,2.17c5.91,2.4,11.82,4,17.44,6.39
		l16.55,6.39c10.88,3.65,21.45,8.02,31.62,13.05c9.85,4.24,19.16,9.42,27.78,15.45c8.86,5.6,16.25,12.79,24.23,18.92
		c28.03,23.76,51.59,51.47,69.74,82.05c3.55,6.93,7.39,13.59,11.23,19.98c3.84,6.4,5.91,13.06,8.87,19.18
		c37.11,84.58,18.34,145.78,2.7,176.13c-0.23,0.27-0.4,0.5-0.63,0.76c-2.14,2.92-4.12,5.95-5.91,9.06
		c-1.64,3.13-3.52,6.16-5.61,9.06l-11.23,17.85c-3.91,6.36-8.25,12.5-13,18.38l-6.8,9.59l-7.68,9.33
		c-5.32,6.13-10.34,13.32-16.84,19.71c-6.5,6.39-11.53,14.39-17.73,21.31c-12.08,14.93-26.18,28.44-41.96,40.23
		c-29.82,23-63.95,41.04-100.77,53.28l-15.73,5.59l0.12-4.78l2.85-4.38l5.75-8.84l6.27-9.64l3.56-10.97
		c1.2-3.58,3.25-6.73,6.13-9.42l2.99-4.6c0.78-1.67,0.89-3.68,0.33-6.01c-1.99-4.74-0.78-8.01,3.52-9.53
		c7.24,0.18,13.52-0.28,18.77-1.36c2.16-2.48,2.91-5.71,2.23-9.62c-0.23-1.74,0-3.26,0.71-4.53l10.69-16.43
		c1.87-3.38,2.87-7.21,2.99-11.47c1.13-2.4-0.2-6.02-3.85-10.58c-3.7-4-11.05-9.07-19.44-13.41c-8.33-4.45-16.83-7.86-23.05-9.24
		c-8.23-1.88-14.83-2.49-19.39-1.81c-5.47,1.52-9.44,3.93-11.83,7.19c-3.42,4.02-5.58,8.72-6.46,14.06l-2.37,3.65
		c-0.24,1.66,0.01,3.57,0.76,5.7c2.07,4.43,2.52,8.13,1.33,11.01c-4.17,1.57-8.98,2.76-14.4,3.58c-2.89,2.65-2.76,6.9,0.38,12.47
		c1.2,2.54,1.59,4.72,1.14,6.49l-2.99,4.6c-2,3.07-4.04,6.21-6.13,9.42c-2.09,3.21-4.13,6.35-6.22,9.57l-6.6,9.46l-8.69,7.18
		l-2.9,4.46l-2.9,4.45l-1.14,5.19l-2.76,4.24l-5.51,8.47l-8.17,12.56c-1.48,0.92-3.86,1.32-7.03,1.19
		c-8.34-1.13-14.62-0.82-18.48,0.93c-1.3,2.6-1.89,5.57-1.75,8.89c-0.42,2.88-2.96,4.68-7.46,5.28c-3.37,1.06-8.08,1.42-11.17,2.73
		c-3.54,3.18-5.11,7.42-4.66,12.66l-4.37,15.65c-1.05,2.76-0.86,6.15,0.57,10.12c1.1,3.41,1.26,6.39,0.48,8.89
		c-1.36,2.09-1.32,4.77,0.14,8.03l0.62,3.86l-0.76,1.17l-0.67,1.02c-2.94,1.72-3.99,4.49-3.09,8.18c1.32,2.76,6.99,7.16,14.22,11.11
		c0.05,0.03,0.1,0.06,0.15,0.09c0.18,0.1,0.33,0.2,0.51,0.3c8.51,4.19,16.81,7.43,23.52,9.2c13.29,4.42,25.29,7.58,35.5,9.34
		l3.8,0.34l2.85-0.26l4.7-1.05c1.46-0.27,2.39-0.85,3.66-1.24c1.61,2.56,2.54,6.07,2.46,10.87c0.26,2.77,1.28,4.54,3.02,5.23
		l4.46,2.36l10.99,2.18l11.24,2.31c1.54,0.81,3.24,1.71,6.03,0.77l7-0.73l6.34,0.13l4.86,2.57l9.8,5.18l10.69,5.65l12.17,3.21
		c3.97,1.09,7.46,2.93,10.45,5.53l5.1,2.7c1.85,0.7,4.08,0.8,6.67,0.3c5.26-1.79,8.89-0.7,10.57,3.17
		c-0.2,6.53,0.31,12.19,1.51,16.92c2.75,1.95,6.33,2.62,10.67,2.01c1.93-0.21,3.61,0,5.03,0.64l18.23,9.64
		c3.74,1.69,8,2.59,12.73,2.7c2.66,1.01,6.68-0.18,11.73-3.47c4.43-3.34,10.06-9.95,14.88-17.52c4.94-7.51,8.72-15.17,10.25-20.78
		c2.08-7.42,2.76-13.37,2-17.48c-1.69-4.94-4.36-8.51-7.98-10.66c-4.46-3.08-9.67-5.03-15.59-5.82l-4.05-2.14
		c-1.84-0.22-3.96,0.01-6.33,0.69c-4.91,1.86-9.02,2.27-12.21,1.2c-1.74-3.76-3.07-8.09-3.97-12.98c-2.94-2.61-7.65-2.49-13.83,0.34
		c-2.82,1.08-5.24,1.43-7.2,1.03l-5.1-2.7c-3.4-1.8-6.89-3.64-10.45-5.52c-3.56-1.88-7.05-3.73-10.61-5.61l-5.6-3.18
		c0.09-0.03,0.2-0.06,0.29-0.09c16.43-5.09,32.52-11.05,48.17-17.85c13.22-5.49,26.05-11.72,38.42-18.65
		c10.93-6.66,21.28-11.46,29.55-17.32l20.39-14.12c6.12-4.1,11.85-8.64,17.14-13.59c5.32-4.8,10.34-9.59,15.07-14.39
		c9.46-9.59,17.14-20.25,24.82-29.31c13.89-19.98,26.6-36.23,37.83-55.68l7.98-13.85l6.21-14.12c4.33-8.61,7.88-17.52,10.64-26.64
		c2.66-8.79,5.02-17.32,7.39-26.64c1.13-3.65,1.82-7.4,2.07-11.19l2.36-10.12l5.61-19.45c0-6.39,2.37-12.52,3.25-18.38h0
		c0-0.02,0-0.04,0.01-0.07c0.89-5.83,2.06-11.41,2.65-16.72C915.18,555.16,914.96,553.43,915.01,551.69z"/>
</g>
</svg>
