<?xml version="1.0" encoding="utf-8"?>
<!-- Generator: Adobe Illustrator 24.3.0, SVG Export Plug-In . SVG Version: 6.00 Build 0)  -->
<svg version="1.1" id="Vrstva_1" xmlns="http://www.w3.org/2000/svg" xmlns:xlink="http://www.w3.org/1999/xlink" x="0px" y="0px"
	 viewBox="0 0 1000 1000" style="enable-background:new 0 0 1000 1000;" xml:space="preserve">
<style type="text/css">
	.st0{fill:#FFFFFF;}
	.st1{fill:#2F2A50;}
</style>
<path class="st0" d="M181,858l24-108l48-113l63.15-121L350,430l-11-59l-29-71l-11-40l51-84l15-63l-22-87.09L365,15l98,18l74,4l96-22
	h21l22,10.91V67l-7,106l7,27l23,45l40,24l6,18c0,0-22,44-24,48s-18,63-18,63l-8,59l21,77c0,0,45,51,45,55s31,93,31,93l17,72l5,95
	l-8,94l-16,26.35L763,979h-32.92L678,960l-27,1l-36,8.35L601.03,979L551,957l-27.89-2L491,969.35L465,979l-34-22l-29-16l-22,8
	l-26,11l-31,1l-18-21l-30-2l-36,1l-29-9l-29-46V858z"/>
<path class="st1" d="M820.25,773.34c-5.73-56.78-19.71-112.61-40.89-165.57c-8.33-20.81-20.99-40.82-33.16-60.78
	c0.15-4.37-2.63-8.61-6.61-10.98c-8.64-14.61-16.54-29.27-21.79-44.29c-27.48-78.69,10.84-147.42,50.58-211.25
	c3.94-6.34,0.43-16.77-7.4-18.2c-120.73-21.9-66.78-138.14-70.14-212.15c-0.15-3.28,6.17-23.16,2.36-29.61
	c-5.7-9.64-9.4-8.25-18.61-13.47c-31.94-18.09-56.12,3.8-82.44,8.66C499.12,32.89,438.62,2.38,349.19,9.16
	c-5.95,0.45-9.67,4.25-11.16,8.74c-4.38,2.36-7.08,7.06-4.69,13.22c22.04,56.81,23.51,117.08-9.35,170.7
	c9.22-15.89-47.35,55.04-47.86,58.74c-6.4,46,52.17,81.64,57.01,124.24c5.48,48.15-14.8,102.42-40.51,154.68
	c-3.19,2.56-5.24,6.56-5.24,10.5c-21.82,43.01-46.43,84.26-62.3,119.12c-1.59,3.5-3.2,7.04-4.81,10.61
	c-3.73,2.77-6.17,7.47-5.46,12.23c-20.2,45.69-39.69,95.99-43.37,144.36c-4.65,61.12,15.51,116.71,72.84,129.29
	c7.36-2.88,13.99-7.12,19.89-12.7c19.77-1.08,34.35,4.91,43.74,17.97c-10.05-3.68,16.22,16.01,19.79,15.84
	c30.45-1.42,42.35-35.07,68.13-28.96c31.46,7.46,28.12,41.06,65.47,38.83c8.55-0.51,14.99-8.36,22.97-10.2
	c15.23-15.85,34.48-21,57.73-15.46c10.75,9.48,22.75,16.89,36.02,22.23c32.01,7.43,41.54-14.79,70.05-22.23
	c46.63-12.17,92.35,40.8,134.83,26.69C850.74,975.06,825.54,825.79,820.25,773.34z M601.03,37c-8.38,42.67-14.44,98.64-54.66,120.14
	c-61.83,33.04-86.19-54.36-95.05-107.1c21.72,6.1,43.49,11.94,66.65,13.66C537.8,65.17,571.42,48.68,601.03,37z M354.53,372.3
	c-18.6-47.38-49.56-79.27-26.29-134.13c9.08-21.42,26.33-38.82,34.4-61.66c17.12-48.46,14.5-95.73-2.12-143.05
	c22.79-0.22,44.01,4.03,64.8,9.44c7.94,56.78,28.22,148.22,96.54,146.18c81.35-2.43,91.73-100.46,106.18-159.96
	c0.1-0.42,0.17-0.83,0.24-1.23c11.16-2.69,20.37-2.94,26.05,1.26c23.45,17.37-3.7,122.33,0.66,148.68
	c6.49,39.25,26.39,62.22,51.2,90.81c11.68,13.46,21.67,4.92,23.77,20.89c1.92,14.6-18.49,41.74-24.79,56.82
	c-18.42,44.09-36.66,92.61-20.34,139.06c7.43,21.12,17.7,41.08,28.8,60.82c-109.9,83.63-281.67,54.7-397.48-2.82
	c16.56-33.09,31.55-66.52,41.53-100.46C367.15,410.72,366.64,403.15,354.53,372.3z M304.91,565.42
	c124.97,61.92,302.51,89.11,421.04,2.27c17.82,30.66,35.94,61.59,46.85,96.29c2.36,7.51,4.48,15.05,6.47,22.6
	c-1.37,0.62-2.72,1.54-3.97,2.86c-127.9,134.47-397.68,130.89-531.94-0.62c1.08-2.53,2.13-4.95,3.12-7.21
	C263.27,643.11,284.65,604.48,304.91,565.42z M797.08,890.23c-1.61,35.82,6.95,74.44-39.52,78.99
	c-24.45,2.39-49.68-28.81-73.61-30.77c-34.96-2.86-55.35,23.35-88.99,23.59c-34.92,0.25-50.58-28.91-86.62-20.58
	c-12.9,2.98-24.77,22.18-36.56,23.5c-33.15,3.7-36.91-32.54-58.27-39.82c-16.1-5.48-11.28-10.27-32.55-3.95
	c-10.17,3.03-15.59,19.99-24.57,22.53c-33.05,9.33-33.44-18.24-58.47-24.19c-15.46-3.68-24.27,5.67-37.76,6.16
	c-99.78,3.67-58.3-133.3-26.96-212.32c143.4,132.52,413.73,136.92,552.5,0.75C797.58,771.95,799.75,830.87,797.08,890.23z"/>
</svg>
