<?xml version="1.0" encoding="utf-8"?>
<!-- Generator: Adobe Illustrator 24.3.0, SVG Export Plug-In . SVG Version: 6.00 Build 0)  -->
<svg version="1.1" id="Vrstva_1" xmlns="http://www.w3.org/2000/svg" xmlns:xlink="http://www.w3.org/1999/xlink" x="0px" y="0px"
	 viewBox="0 0 1000 1000" style="enable-background:new 0 0 1000 1000;" xml:space="preserve">
<style type="text/css">
	.st0{fill:#F83C7C;}
</style>
<path class="st0" d="M997.91,462.93l0.15-0.18c-0.14-0.22-0.32-0.46-0.47-0.69c-2.17-6.19-5.95-11.9-11.46-16.89
	c-26.38-38.62-59.15-79.27-82.1-114.64C860,262.68,836.98,197.43,786.55,137.31c-16.58-19.77-34.22-38.32-52.07-56.42
	c-4.49-3.84-14.19-6.93-23.46-5.95c-9.81,1.03-23.75,3.1-42.34,13.42s-32.53,30.98-32.53,43.37s10.01,30.96,10.01,30.96l0,0.02
	c21.69,28.94,43.19,59.06,64.53,85.1c36.04,44,71.46,76.21,104.26,121.74c-6.94-2.5-13.76-5.22-20.79-7.53
	c-74.56-24.45-143.69-21.55-223.06-37.18c-102.86-20.26-218.46-49.74-322.05-48.62c-59.05,0.64-137.17-1.12-200.71,6.23
	c-111.53,66.82,4.88,116.33,4.88,116.33s-0.01,0.08-0.01,0.09c74.24-11.6,180.93-3.17,257.65,0.32
	c74.85,3.41,164.22,3.29,237.93,17.97c64.48,12.85,110.35,37.28,171.02,56.39c43.55,13.72,93.96,25.06,139.45,38.7
	c-12.89,14.86-26.02,29.73-39.73,45.4c-43.29,49.48-87.34,77.05-134.17,120.11c-48.17,44.29-99.17,103.86-147.55,139.98
	c-56.92,42.48-2.03,139.68,55.4,96.82c49.21-36.73,103.08-73.01,151.74-116.72c58.37-52.43,90.34-113.8,143.47-174.8
	c28.45-32.66,59.22-66.62,89.26-101.38C995.27,506.56,1004.39,482.83,997.91,462.93z"/>
</svg>
