<?xml version="1.0" encoding="utf-8"?>
<!-- Generator: Adobe Illustrator 24.3.0, SVG Export Plug-In . SVG Version: 6.00 Build 0)  -->
<svg version="1.1" id="Vrstva_1" xmlns="http://www.w3.org/2000/svg" xmlns:xlink="http://www.w3.org/1999/xlink" x="0px" y="0px"
	 viewBox="0 0 1000 1000" style="enable-background:new 0 0 1000 1000;" xml:space="preserve">
<style type="text/css">
	.st0{fill:#FFFFFF;}
	.st1{fill:#2F2A50;}
</style>
<polygon class="st0" points="44,898 53,782 115,591 148,421 162,286 172,35 318,27.48 623,27.48 737,12 803,27.48 855,39 884,71 
	884,138 892,352 917,582 939,753 961,931 639,975 585,806 532,667 512,676 493,720 437,983 229,957 101,923 "/>
<path class="st1" d="M976.77,934.36c-26.98-203.04-49.44-411.35-69.92-615.12c-2.2-45.03-3.75-90.4-4.83-136.3
	c-2.06-87.66,13.46-137.45-60.03-168.36C815.91,3.6,781.54,0,744.35,0c-70.32,0-150.74,12.86-204.37,13.04
	c-123.06,0.4-246.08,2.28-369.1,5c-20.68,0.46-25.86,24.78-15.42,36.55c-0.17,0.87-0.31,1.77-0.39,2.71
	c-11.48,136.2-5.58,271.27-27.85,406.95c-3.36,20.48-5.81,31.5-9.73,51.74c-5.7,22.52-11.43,45.02-17.27,67.51
	C72.64,689.57,26.99,800.06,23.12,909.94c-0.22,6.12,4.9,12.29,10.78,13.65c77.07,17.77,108.28,31.78,197.58,46.89
	c0,0.02,0,0.03-0.01,0.05L444.23,1000c28.97-100.69,53.58-202.54,72.25-306.18c0.71-3.93,3.94-5.98,7.18-5.98
	c2.89,0,9.43,22.21,10.53,25.6c19.98,61.45,71.22,217.86,89.76,279.68c99.07-11.98,240.83-31.14,339.9-43.11
	C971.34,949.11,977.82,942.23,976.77,934.36z M942.3,892.72c-25.12,62.68-172.34,51.83-230.31,58.84
	c-14.62,1.77-40.98,6.41-58.6,9.98c-15.07-49.53-77.8-219-96.71-277.16c-7.19-22.11-28.01-37.49-51.2-19.25
	c-4.55,3.58-14.17,13.3-15.18,19c-16.5,92.58-38.11,186.11-65.97,285.38l-181.19-25.1l0,0c-58.29-8.46-95.73-8.37-135.4-33.24
	c-76.82-48.16-23.1-157.22-2.93-232.57c15.04-56.18,29.64-112.48,43.86-168.87l0.01,0c0.01-0.03,0.01-0.06,0.02-0.09
	c0.14-0.55,0.28-1.1,0.42-1.65l-0.11,0c3.55-18.79,2.04-19.24,5.33-39.26c5.9-35.93,9.85-71.92,12.69-107.76
	c30.13-3.52,60.37-24.79,82.38-60.77c13.12-21.45,24.12-42.69,38.62-62.73c12.52-17.31,22.11-33.72,27.74-56.63
	c7.18-29.19-23.14-36.41-30.32-7.2c-7.37,29.97-35.12,57.05-49.47,83.5c-18.35,33.81-39.06,54.1-65.86,57.93
	c1.93-34.13,3.16-68.01,4.35-101.44c1.8-50.45,3.67-102.61,7.97-153.8l2.6-13.28l-1.15-1.29c116.87-2.53,222.75-4.03,322.24-4.57
	c-0.37,1.91-0.64,3.93-0.64,6.23c0,77.64,0,155.29,0,232.93c0,27.15,28.71,27.2,28.71,0c0-77.65,0-155.29,0-232.93
	c0-2.35-0.28-4.41-0.67-6.35c2.18-0.01,4.38-0.02,6.55-0.03c25.97-0.09,57.16-2.94,90.18-5.96c38.1-3.48,77.49-7.08,114.1-7.08
	c38.66,0,67.12,4.06,86.99,12.42c26.86,11.3,34.26,23.36,37.96,33.66c5.78,16.1,5.52,38.95,5.2,67.89
	c-0.14,12.6-0.3,26.88,0.06,42.13c1.04,44.3,2.51,86.63,4.42,127.41c-45.89-24.56-95.5-62.79-119.3-136.69
	c-10.66-33.11-42.97-25.49-32.19,8c31.52,97.88,91.55,150.61,153.53,182.32c1.01,0.52,1.97,0.87,2.91,1.14
	c9.65,100.6,18.82,206.39,30.54,304.85c5.29,44.46,10.75,88.89,16.37,133.31C933.35,823.75,949.53,874.69,942.3,892.72z"/>
</svg>
