<?xml version="1.0" encoding="utf-8"?>
<!-- Generator: Adobe Illustrator 24.3.0, SVG Export Plug-In . SVG Version: 6.00 Build 0)  -->
<svg version="1.1" id="Vrstva_1" xmlns="http://www.w3.org/2000/svg" xmlns:xlink="http://www.w3.org/1999/xlink" x="0px" y="0px"
	 viewBox="0 0 1000 1000" style="enable-background:new 0 0 1000 1000;" xml:space="preserve">
<style type="text/css">
	.st0{fill:#FFFFFF;}
	.st1{fill:#2F2A50;}
</style>
<path class="st0" d="M64,413l-36-33l-10-46l70-131l59-80l129-59l113.28-25H584c0,0,117,24,120,24s107,64,107,64s82,100,83,104
	s86,132,86,132l-116,94l-52-29l-42-53l-29-24l-30-21l10,90l-1,302l8,200v29l-220,9H359h-81l-29-34l-9-94l5-142l4-110V479l-3-93
	l-4-32l-36,48l-40,42l-44,16l-35-24L64,413z"/>
<path class="st1" d="M996.51,357.87c-78.28-93.38-125.32-217.62-233.64-282.62c-38.33-23-80.35-35.78-124.06-42.67
	c-3.98-3.58-9.94-4.92-14.55-2.06c-79.42-10.19-163.57-2.85-240.66-3.4c-6.42-0.05-10.22,3.93-11.5,8.71
	c-2.33-1.19-5.14-1.67-8.33-1c-80.73,16.93-176.5,17.89-232.81,84.67c-42.43,50.31-72.96,124-104.73,181.83
	c-12.49,22.73-30.51,42.85-25.32,70.02c3.1,16.24,58.59,48.91,62.91,53.19c13.76,13.63,29.26,53.83,51.21,58.37
	c46.74,9.67,88.53-61.98,118.06-106.84c2.37,99.61,3.63,199.23,3.35,298.87c-0.27,95.05-14.77,197.72,5.69,290.86
	c1.14,5.19,6.77,9.27,12,9.14c158.24-3.93,316.48-7.86,474.72-11.79c6.54-0.16,12.7-5.57,12.45-12.45
	c-7.2-196.56-10.89-393.16-11.15-589.84c35.53,39.77,88.45,104.02,124.29,107.94c38.82,4.24,109.12-69.69,139.54-91.36
	C1000.91,372.49,1001.99,364.4,996.51,357.87z M608.01,54.18c-22.72,30.62-56.19,50.67-95.71,54.08
	c-31.68,2.73-118.56-11-123.02-56.23C461.43,52.27,536.01,47.64,608.01,54.18z M936.06,388.25c-15.12,10.78-30.25,21.55-45.37,32.33
	c-20.93,29.55-40.97,28.72-60.12-2.48c-36.33-17.64-74.4-69.59-104.1-97.37c-7.77-7.27-21.25-2.24-21.25,8.8
	c-0.07,129.44,1.14,258.87,4.12,388.27c0.89,38.82,1.93,77.64,3.11,116.45c0.53,17.33,10.29,62.65,2.56,77.62
	c-26.87,52.04-153.08,30.5-203.71,31.76c-55.64,1.38-145.55,21.56-197.8,4.91c-74.92-23.88-53.34-127.09-52.65-194.74
	c1.4-138.07-0.09-276.11-3.75-414.13c-0.28-10.48-13.59-16.81-21.25-8.8c-37.27,38.97-66.37,134.73-134.98,98.41
	c-8.53-4.52-21.61-22.33-29.43-31.03c-21.49-23.9-38.57-36.84-32.51-68.9c8.36-44.24,67.74-135.05,96.99-170.28
	c61.57-74.14,142.23-81.31,229.56-99.24c10.34,48.96,77.75,69.85,122.03,73.03c61.27,4.41,116.77-24.17,148.46-75.41
	c115.1,17.65,185.85,88.7,248.28,184.01C916.12,290.16,981.72,340.03,936.06,388.25z"/>
</svg>
