<?xml version="1.0" encoding="utf-8"?>
<!-- Generator: Adobe Illustrator 24.3.0, SVG Export Plug-In . SVG Version: 6.00 Build 0)  -->
<svg version="1.1" id="Vrstva_1" xmlns="http://www.w3.org/2000/svg" xmlns:xlink="http://www.w3.org/1999/xlink" x="0px" y="0px"
	 viewBox="0 0 1000 1000" style="enable-background:new 0 0 1000 1000;" xml:space="preserve">
<style type="text/css">
	.st0{fill:#D2D0E4;}
	.st1{fill:#302A50;}
</style>
<path class="st0" d="M837,233l-56-95L662,58L526,16c0,0-104,12-106.96,11.67C416.07,27.33,286,76,286,76L140,229L83.67,459.47
	L110,641l4.33,65.72c0,0,100.67,146.28,112,159.44C237.67,879.32,346,946,346,950s119,19,119,19s75.08-9.05,118-15.11
	c-36.29,4.44-74.9,9.11-77,9.11c-4,0-139-15-142-15S218,845.26,218,845.26l-19.52-20.97L246,718l70-109l83.08-73.72L335,449l-10-90
	l46-89l78-44c0,0,81-5,85-5s76,25,76,25l52,62c0,0,11,51,12,54s9.65,61,9.65,61L614,540l44,39l60,80l65.7,165.29l-92.85,82.67
	C712.43,895.41,730,886,730,886l134-154l9-44.71L912,577V388L837,233z"/>
<path class="st1" d="M865.16,705.44c-5.37-2.53-5.85-12.8-2.85-29.72s9.64-40.47,15.81-70.03c6.47-35.84,9.8-72.18,9.96-108.6
	c0.4-48.04-5.77-95.9-18.34-142.27l-6.01-18.65l-5.85-18.65c-4.6-12.66-9.87-25.06-15.81-37.15
	c-14.23-26.35-30.06-51.79-47.42-76.19c-16.56-26.61-35.33-51.78-56.12-75.24c-22.23-22.54-48.65-40.53-77.77-52.96l-11.38-5.37
	l-11.86-4.74c-7.75-3.32-15.81-5.85-24.19-9.17c-15.93-5.88-32.25-10.64-48.85-14.23c-33.74-8-68.58-10.24-103.07-6.64
	c-4.4,0.35-8.78,0.93-13.12,1.74l-12.96,2.21c-8.54,2.06-17.23,3.48-25.61,6.16c-17.07,4.7-33.77,10.67-49.95,17.86
	c-32.82,14.39-63.38,33.45-90.74,56.59c-25.1,20.85-47.55,44.68-66.87,70.98l-7.27,9.8l-6.8,10.12c-4.74,6.8-8.85,13.75-12.96,20.71
	s-7.59,13.91-11.22,20.87c-3.64,6.96-6.48,14.54-9.8,21.81c-3.32,7.27-6.01,15.81-8.69,22.76c-2.69,6.96-5.37,15.81-7.59,22.92
	c-2.21,7.11-4.9,15.81-6.96,23.71c-2.05,7.9-4.27,15.81-5.85,23.24c-6.9,30.66-11.02,61.87-12.33,93.27
	c-1.11,30.53,0.43,61.1,4.58,91.37c0.79,7.43,2.21,14.7,3.48,21.97s3,14.54,4.58,21.81l9.8,46c4.88,26.83,13.33,52.88,25.13,77.46
	c12.54,23.26,27.48,45.14,44.58,65.29c16.91,20.71,36.52,40.47,53.59,57.54c16.25,16.51,34.04,31.43,53.11,44.58
	c16.85,11.05,34.94,20.07,53.9,26.87c17.93,6.14,36.26,11.06,54.85,14.7c29.67,6.11,60.04,8.13,90.26,6.01
	c10.96-0.71,21.89-1.98,32.72-3.79l6.64-0.95l6.16-1.42l10.59-2.53l9.17-1.9l8.85-2.85c6.01-1.9,12.01-3.64,17.86-5.85
	c11.38-5.06,23.08-9.33,34.14-15.81l8.38-4.27l4.27-2.05l3.95-2.37c5.53-3.16,10.91-6.32,15.81-9.17s10.43-6.48,15.81-9.48
	c5.37-3,9.96-5.85,14.23-9.17c9.01-6.64,18.18-12.49,26.08-19.44l12.17-9.8c3.95-3.32,7.59-6.8,11.22-9.96l10.91-9.8l9.8-9.96
	l10.12-10.12l9.8-9.96l9.64-9.01l8.54-8.54c5.53-5.37,10.91-10.28,15.81-15.81c9.17-9.48,17.7-17.07,24.03-23.87
	c12.65-13.44,21.02-21.18,25.29-19.44c4.27,1.74,3.32,13.59-4.11,33.83c-5.02,11.69-10.88,23-17.55,33.83l-12.65,19.29
	c-4.43,6.8-9.64,13.28-14.54,20.08c-2.37,3.48-4.58,7.11-7.27,10.43l-8.38,11.22l-9.64,12.49l-10.75,12.33
	c-3.58,4.32-7.38,8.59-11.38,12.8l-12.8,12.33c-8.97,8.74-18.41,16.97-28.3,24.66c-5.06,4.43-10.59,7.9-15.81,11.86
	s-10.59,7.59-15.81,11.07l-16.76,10.59l-8.85,5.37l-9.8,6.8c-27.42,15.77-57.04,27.33-87.89,34.3c-21.66,5-43.72,8.07-65.92,9.17
	c-35.09,2.11-70.3-0.6-104.65-8.06c-21.5-4.28-42.64-10.2-63.23-17.7c-24.29-9.01-47.38-20.95-68.76-35.57
	c-21.93-15.43-42.26-33.01-60.7-52.48c-18.18-18.97-35.41-37.62-53.9-60.07c-19.51-23.63-36.52-49.21-50.74-76.35
	c-14.11-29.76-23.91-61.37-29.09-93.9l-8.06-43.31c-1.58-7.75-3.32-15.81-4.58-23.71c-1.26-7.9-2.53-15.81-3.48-24.03
	c-3.97-33.04-5.08-66.36-3.32-99.59c1.91-34.1,6.89-67.96,14.86-101.17c4.11-15.81,8.69-32.88,14.38-49.16l3.95-12.17l4.43-12.17
	c1.58-4.11,3-8.22,4.58-12.17l5.06-12.01c7.05-16.28,15.07-32.11,24.03-47.42c4.74-7.59,9.48-15.81,14.54-22.6
	s10.12-14.7,15.81-21.66c21.64-28.36,46.46-54.13,73.98-76.83c30.23-25.2,63.86-46.01,99.9-61.81
	c35.48-16.18,73.13-27.09,111.76-32.41c38.04-4.88,76.61-3.7,114.29,3.48c9.33,1.9,18.65,3.64,27.66,6.16
	c4.43,1.26,9.01,2.37,13.44,3.79l13.28,4.27c8.54,2.53,16.76,5.85,25.13,8.54c8.38,2.69,16.91,6.32,25.13,9.96
	c35.01,13.79,67.17,33.94,94.85,59.44c23.53,24.29,44.7,50.75,63.23,79.04c18.5,24.97,35.55,50.99,51.06,77.93
	c3.79,6.96,7.27,13.91,10.91,21.02c3.64,7.11,6.48,14.54,9.64,21.81l7.75,21.34c2.53,7.11,4.58,14.23,6.8,21.18
	c15.39,50.4,23.01,102.85,22.61,155.55c-0.25,40.85-6.05,81.48-17.23,120.77c-7.27,24.68-17.91,48.25-31.62,70.03
	C878.12,701.65,870.37,707.81,865.16,705.44z"/>
<path class="st1" d="M342.92,364.45l2.21-9.11c2.95-12.02,7.21-23.68,12.69-34.77c6.41-12.14,14.28-23.45,23.45-33.66
	c4.28-5.16,8.89-10.05,13.8-14.62c2.49-2.35,5.12-4.57,7.86-6.62c2.51-2.22,5.19-4.25,8-6.07c5.54-3.85,11.46-7.13,17.66-9.8
	c3.17-1.24,6.07-2.9,9.24-3.86l9.38-3.17l4.69-1.52l4.83-0.97l9.52-2.21c3.31,0,6.62-1.24,9.8-2.07c3.12-0.93,6.3-1.67,9.52-2.21
	c11.9-3.1,24.39-3.1,36.28,0c5.75,1.81,11.3,4.22,16.56,7.17c2.62,1.52,5.38,2.9,8,4.14c2.62,1.24,5.38,2.9,8.14,4.14
	c2.76,1.24,5.52,2.07,8.14,3.31l7.73,3.31c5.08,1.89,10.01,4.15,14.76,6.76c4.6,2.19,8.95,4.88,12.97,8
	c4.14,2.9,7.59,6.62,11.31,9.8c13.09,12.3,24.08,26.66,32.56,42.49c1.66,3.59,3.45,7.04,5.24,10.35c1.79,3.31,2.76,6.76,4.14,9.93
	c2.49,5.71,4.65,11.56,6.48,17.52l1.24,4l0.97,3.86c0,2.62,1.24,4.97,1.93,7.17c1.14,3.88,2.47,7.7,4,11.45
	c2.9,6.35,7.04,9.93,11.86,9.93c4.83,0,8.42-3.45,11.31-10.62c3.68-10.53,5-21.74,3.86-32.84c-0.77-8.06-2.39-16.01-4.83-23.73
	c-1.38-4.14-2.62-8.55-4.41-12.97l-6.07-13.8c-10.23-20.18-24.28-38.17-41.39-52.98c-4.82-4.25-9.89-8.21-15.18-11.86l-9.24-4.97
	c-2.94-1.66-5.98-3.14-9.11-4.41l-9.24-4.14l-9.24-3.31l-9.24-3.45c-3.04-0.83-6.07-1.93-8.97-3.04c-2.9-1.1-5.93-2.62-9.11-4
	l-9.66-3.86c-6.89-3.14-14.11-5.5-21.52-7.04l-6.07-1.24h-6.07c-4-0.21-8-0.21-12,0c-7.86,0.83-15.45,2.48-22.9,4l-10.9,3.04
	c-3.59,0.97-7.17,1.66-10.62,2.76c-7.6,1.66-15.07,3.87-22.35,6.62l-11.04,4l-10.76,5.1l-5.38,2.48l-5.1,3.17
	c-3.45,2.07-6.76,4.28-10.07,6.48c-13.09,9.43-25.08,20.31-35.73,32.42c-5.56,5.89-10.77,12.11-15.59,18.63
	c-2.48,3.31-4.55,6.9-6.76,10.21c-2.33,3.41-4.45,6.96-6.35,10.62c-3.63,6.46-6.86,13.14-9.66,20l-4.28,10.49l-3.17,10.62
	c-2.14,7.24-3.8,14.61-4.97,22.07l-0.41,5.24v5.79c0,3.73,0,7.45,0,11.18c0,7.31,1.1,14.62,1.52,21.8
	c0.41,7.17,1.93,13.8,3.17,21.38l2.48,10.62c0.8,3.51,1.82,6.96,3.04,10.35c2.16,6.85,4.69,13.57,7.59,20.14l4.69,9.66
	c1.56,3.18,3.31,6.27,5.24,9.24l5.38,8.97l6.21,8.42c1.91,2.83,3.99,5.55,6.21,8.14l6.76,7.73c3.73,4.69,7.73,9.38,11.59,14.76
	c8.04,11.87,18.47,21.92,30.63,29.52c5.97,3.54,12.2,6.62,18.63,9.24c6.07,2.48,12.28,4,18.21,5.79c2.84,0.93,5.75,1.67,8.69,2.21
	l8.42,2.21c5.52,1.66,10.9,2.62,16.42,4.14l8.28,2.07c2.76,0,5.52,1.1,8.42,1.66l8.55,1.38c2.83,0.49,5.69,0.76,8.55,0.83
	c5.93,0,11.73,0,17.25,0s10.76-1.79,15.73-2.9c4.68-1.02,9.29-2.35,13.8-4c4.41-1.52,8.69-2.62,12.55-4.14
	c7.67-2.63,15.18-5.72,22.49-9.24c6.17-2.85,12.16-6.07,17.94-9.66c5.1-3.45,9.93-5.93,13.8-8.97l9.52-7.31
	c2.86-2.12,5.53-4.48,8-7.04c2.48-2.48,4.83-4.97,7.04-7.45c4.41-4.97,8-10.49,11.59-15.18c6.48-10.35,12.42-18.76,17.66-28.83
	l3.72-7.17l2.9-7.31c2.02-4.46,3.68-9.07,4.97-13.8c1.24-4.55,2.35-8.97,3.45-13.8c0.53-1.89,0.85-3.83,0.97-5.79l1.1-5.24
	l2.62-10.07c0-3.31,1.1-6.48,1.52-9.52s0.97-5.93,1.24-8.69c0.21-2.48,0.21-4.97,0-7.45c-1.24-8.97-4.69-13.8-8.42-13.8
	s-7.59,4.28-12.69,11.04l-4,5.52l-5.1,6.21c-3.73,4.55-7.17,9.66-11.59,15.31c-1,1.51-1.92,3.08-2.76,4.69
	c-0.77,1.62-1.64,3.19-2.62,4.69l-5.24,9.24c-1.83,3.3-3.85,6.47-6.07,9.52l-3.17,4.97l-3.59,4.83c-2.48,3.17-4.83,6.9-7.86,10.21
	s-5.38,7.45-8.28,11.04c-5.64,7.73-12.22,14.73-19.59,20.83c-13.92,11.91-29.85,21.25-47.05,27.59l-9.8,3.86l-4.97,1.93l-5.24,1.52
	c-3.63,1.04-7.31,1.87-11.04,2.48c-3.86,0.21-7.73,0.21-11.59,0c-4.17-0.07-8.33-0.53-12.42-1.38l-6.48-0.97l-6.76-1.79l-6.9-1.38
	c-2.48,0-4.69-1.1-7.17-1.52c-4.83-1.1-9.8-1.66-13.8-2.9c-4.69-0.88-9.3-2.13-13.8-3.73c-4.78-1.41-9.4-3.31-13.8-5.66
	c-8.59-5.53-15.96-12.76-21.66-21.25c-3.31-4.41-7.31-8.83-11.18-13.8l-5.79-5.66l-6.35-4.97c-1.82-2.07-3.52-4.23-5.1-6.48
	l-4.69-6.9l-2.48-3.45l-1.52-3.31l-4.14-7.45c-1.35-2.48-2.5-5.07-3.45-7.73l-3.45-8c-1.66-5.52-3.45-11.04-4.97-16.69
	c0-2.9-1.1-5.79-1.79-8.69c-0.69-2.9-1.24-5.93-1.52-8.97c-1.2-5.96-1.98-12-2.35-18.07v-8.97c0.02-3,0.25-6,0.69-8.97
	L342.92,364.45z"/>
<g>
	<path class="st1" d="M226.39,845.26c0.08-0.4,0.14-0.78,0.22-1.18c1.52-7.9,3.51-16.6,5.15-23.71s3.63-15.97,5.62-22.92
		c1.99-6.96,3.98-15.49,6.44-22.76c2.46-7.27,4.57-14.86,7.26-21.81c2.69-6.95,5.27-13.91,8.31-20.87
		c3.04-6.96,6.09-13.91,9.6-20.71l5.03-10.12l5.39-9.8c14.31-26.29,30.94-50.13,49.53-70.98c20.26-23.15,42.9-42.21,67.21-56.59
		c7.48-4.49,15.14-8.32,22.89-11.85c-7.44-6.32-17.36-14.55-27.18-22.64c-3.61,2-7.27,3.84-10.82,6.03
		c-26.7,15.8-51.61,36.6-74,61.81c-20.38,22.69-38.77,48.47-54.8,76.82c-4.21,6.96-7.96,14.86-11.71,21.66
		c-3.75,6.8-7.26,15.02-10.77,22.6c-6.63,15.31-12.58,31.15-17.8,47.42l-3.75,12.01c-1.17,3.95-2.22,8.06-3.4,12.17l-3.28,12.17
		l-2.93,12.17c-0.05,0.19-0.09,0.4-0.14,0.59L226.39,845.26z"/>
	<path class="st1" d="M780.89,755.56c-11.49-26.94-24.11-52.96-37.82-77.93c-13.72-28.29-29.41-54.75-46.83-79.04
		c-20.5-25.49-44.32-45.65-70.25-59.44c-6.09-3.64-12.41-7.27-18.62-9.96c-1.84-0.8-3.66-1.69-5.48-2.56l-30.61,24.42
		c4.25,1.8,8.5,3.56,12.67,5.65c6.21,3.32,12.18,5.85,17.91,9.17l8.78,4.74l8.43,5.38c21.57,12.43,41.14,30.41,57.61,52.96
		c15.4,23.46,29.3,48.63,41.56,75.24c12.86,24.4,24.59,49.84,35.13,76.19c4.39,12.09,8.3,24.49,11.71,37.15l1.57,6.77l29.37-26.16
		c-2.31-7.19-4.4-14.52-7.06-21.55C786.27,769.47,783.7,762.51,780.89,755.56z"/>
</g>
</svg>
