<?xml version="1.0" encoding="utf-8"?>
<!-- Generator: Adobe Illustrator 24.3.0, SVG Export Plug-In . SVG Version: 6.00 Build 0)  -->
<svg version="1.1" id="Vrstva_1" xmlns="http://www.w3.org/2000/svg" xmlns:xlink="http://www.w3.org/1999/xlink" x="0px" y="0px"
	 viewBox="0 0 1000 1000" style="enable-background:new 0 0 1000 1000;" xml:space="preserve">
<path d="M991.66,91.36c-8.65-15.62-17.88-37.72-32.18-42.74c-3.3-1.16-6.72-2.84-10.14-4.57c-19.11,9.37-37.97,19.7-56.37,31.56
	c-22.07,14.4-43.69,30.72-65.98,44.8c-22.3,14.08-46.87,28.8-67.8,42.88c-20.93,14.08-41.64,27.2-61.44,41.6l-30.26,21.44
	c-9.1,7.04-18.89,16.32-27.53,25.28c-8.65,8.96-17.97,17.6-26.62,26.56l-27.76,24.96c-19.34,16.96-37.31,33.28-55.06,50.56
	c-17.75,17.28-35.04,33.92-51.88,51.2l-24.57,25.6c-8.05,6.81-16.59,12.39-25.48,16.64c-20.57,7.75-40.04,20.42-57.56,37.44
	c-14.39,17.7-27.92,36.73-40.5,56.96c-11.26,17.48-24.2,32.67-38.45,45.12c-14.34,13.12-28.67,23.68-42.32,37.76
	c-12.46,13.72-23.69,29.52-33.45,47.04l-4.09,5.76l1.14,1.6l-2.73,3.84c-1.25-1.21-2.33-2.73-3.19-4.48
	c3.87,6.08-18.66-21.12-31.17-33.6c-12.77-13.88-24.85-28.96-36.18-45.12c-11.68-15.15-22.83-28.91-33.45-41.28l-15.7-17.6
	l-6.14-8.64l-5.46-7.68c-10.96-19.85-23.65-37.7-37.77-53.12c-8.77-9.44-20.93-9.57-29.81-0.32c-8.19,10.24-10.01,24.96-11.15,48.32
	c-1.62,30.9,0.07,61.96,5.01,92.16l3.41,13.76l4.55,12.8l9.78,24.64c7.05,16.96,15.02,34.56,24.12,52.48
	c9.18,20.46,20.19,39.17,32.77,55.68l18.89,26.56L113,816.75l17.97,25.28c25.71,40.64,52.33,78.08,77.82,113.92
	c18.43-31.04,36.86-62.72,54.83-91.84l23.21-40.32l11.61-19.52l2.96-4.16c0.82-0.75,1.51-1.73,2.05-2.88l3.41-4.8
	c8-15.43,17.41-29.31,27.99-41.28c10.92-12.8,24.57-24.32,38.23-38.4c14.16-15.12,26.8-32.88,37.54-52.8
	c10.66-19.98,22.46-38.7,35.27-56c14.86-13.67,31.13-24.03,48.24-30.72c9.67-5.94,18.77-13.58,27.08-22.72l22.3-27.52
	c15.24-18.24,30.72-36.8,46.87-54.4c16.16-17.6,32.31-36.48,49.37-53.44c8.42-9.28,18.2-17.28,25.71-27.84l24.57-29.44
	c8.65-10.24,16.84-19.84,25.48-28.16l28.21-24.32c17.97-16.32,34.58-30.08,55.52-46.08c20.93-16,41.64-31.04,62.8-46.08
	s41.87-30.72,62.8-44.16c20.3-13.52,41.2-25.17,62.57-34.88l12.59-5.49C999.09,115.23,998.92,104.46,991.66,91.36z"/>
</svg>
