<?xml version="1.0" encoding="utf-8"?>
<!-- Generator: Adobe Illustrator 24.3.0, SVG Export Plug-In . SVG Version: 6.00 Build 0)  -->
<svg version="1.1" id="Vrstva_1" xmlns="http://www.w3.org/2000/svg" xmlns:xlink="http://www.w3.org/1999/xlink" x="0px" y="0px"
	 viewBox="0 0 1000 1000" style="enable-background:new 0 0 1000 1000;" xml:space="preserve">
<style type="text/css">
	.st0{fill:#9b4dca;}
</style>
<path class="st0" d="M584.42,461.46l33.72-33.72l16.2-16.2c5.46-4.61,11.55-8.41,18.09-11.3c15.21-5.31,29.41-13.15,42.01-23.17
	c9.85-10.32,19.15-21.13,27.88-32.4c7.47-10.14,16.43-19.09,26.57-26.57c10.17-7.16,21.29-13.38,31.09-20.91
	c9.87-7.78,18.79-16.7,26.56-26.56l47.29-49.55l26.38-26.38c9.96-10.71,18.92-22.31,26.75-34.67c6.88-10.39,14.5-20.27,22.8-29.58
	c8.48-8.48,14.88-18.28,21.1-26.75l8.85-12.62l3.77-5.65l4.33-4.33c10.33-8.92,19.56-19.04,27.51-30.15
	c4.86-7.23,4.24-16.82-1.51-23.36c-5.28-5.27-13.56-6.4-26.37-6.78c-17.16-0.47-34.3,1.57-50.87,6.03c-1.7,1.7-4.9,1.88-7.16,3.01
	l-6.97,3.96l-13.19,8.29c-8.86,5.84-18.28,12.62-27.89,19.97c-11.15,6.58-21.46,14.48-30.71,23.55
	c-8.85,10.74-16.39,21.29-26.56,31.46l-29.39,33.91l-36.74,47.67c-6.84,10.38-15.01,19.82-24.3,28.07
	c-7.91,7.91-18.84,14.32-29.39,22.61c-10.72,8.91-20.11,19.32-27.88,30.9c-7.67,11.72-16.1,22.92-25.25,33.54
	c-10.96,9.51-23.2,17.43-36.36,23.55c-7.26,4.15-13.87,9.36-19.59,15.45l-15.45,17.71c-11.12,11.12-20.91,23.93-31.46,36.36
	l-32.59,36.74c-2.45,2.45-4.9,4.9-7.35,7.35l-3.2-3.2l-34.67-34.67l-33.72-33.72l-15.26-15.26c-4.48-5.56-8.27-11.63-11.3-18.09
	c-5.54-15.13-13.71-29.16-24.12-41.45c-10.23-9.94-21.05-19.25-32.4-27.88c-10.13-7.48-19.09-16.43-26.56-26.56
	c-6.97-10.36-13.38-21.29-20.91-31.09l-8.1-8.1l-49.93-48.42l-45.4-43.14c-10.71-9.96-22.31-18.92-34.67-26.75
	c-10.39-6.88-20.28-14.5-29.58-22.8c-8.48-8.48-18.28-14.88-26.75-21.1l-12.62-8.85l-4.71-4.71l-4.15-4.15
	c-8.88-10.5-19.07-19.81-30.33-27.69c-7.23-4.86-16.82-4.24-23.36,1.51c-5.28,5.28-6.41,13.56-6.78,26.38
	C9.4,48.25,11.5,65.32,16.01,81.83c0.73,2.61,1.74,5.14,3.02,7.53l3.77,6.78l8.29,13.19c5.84,8.85,12.62,18.28,19.97,27.88
	c8.11,10.41,17.48,19.77,27.88,27.88c9.79,9.8,21.29,16.39,31.46,26.56l52.37,45.59l54.83,48.8c7.91,7.91,14.32,18.84,22.42,29.2
	c9,10.88,19.54,20.4,31.27,28.26c11.77,7.62,23.03,15.99,33.72,25.06c9.61,10.88,17.55,23.14,23.55,36.36
	c4.16,7.25,9.37,13.86,15.45,19.59l17.71,15.45l36.36,31.46l36.74,32.59l6.78,6.78l-11.49,11.49l-34.67,36.93
	c-13.19,13.19-26.38,26.38-39.56,39.56c-13.19,13.19-24.68,27.32-36.74,40.88c-12.06,13.56-25.62,25.62-38.81,36.55l-18.84,18.84
	c-6.03,6.61-11.63,13.59-16.77,20.91l-3.77,3.77l-72.91,57.84c-10.24,9.95-19.57,20.8-27.88,32.41
	c-4.29,5.58-8.89,10.93-13.75,16.02l-14.51,14.51c-18.84,18.84-37.68,37.68-52.19,52.19c-13.18,13.39-25.64,27.48-37.3,42.2
	c-8.97,8.94-15.74,19.84-19.78,31.84c-2.88,8.76-0.55,18.4,6.03,24.87c6.42,6.66,15.83,9.51,24.87,7.54
	c13.14-2.59,25.71-7.5,37.12-14.51c16.03-10.93,31.04-23.29,44.84-36.93c17.99-17.07,35.1-35.06,51.25-53.88l13.94-16.2
	c4.88-5.77,9.35-11.88,13.38-18.27c5.92-9.85,12.4-19.34,19.41-28.45l71.78-65.75c2.64-2.64,4.14-6.78,6.22-9.99
	c4.22-7.36,9.21-14.24,14.88-20.54l18.84-18.84c12.62-12.62,25.43-25.43,37.68-37.68c12.25-12.25,24.87-27.13,37.68-40.32
	l41.26-37.87l37.87-33.72l14.88-14.88l16.58,16.58l37.12,34.48l40.51,38.62l40.69,36.93c13,13,25.62,25.62,36.74,38.62l18.84,18.84
	c6.61,6.03,13.59,11.63,20.91,16.77c13.39,8.19,25.14,18.8,34.67,31.27l27.32,48.8c10.43,10.65,21.78,20.35,33.91,29.01
	c5.66,4.19,11.02,8.79,16.01,13.75l66.69,66.7c13.39,13.18,27.48,25.63,42.2,37.3c8.94,8.97,19.84,15.74,31.84,19.78
	c8.76,2.88,18.4,0.55,24.87-6.03c6.66-6.42,9.51-15.83,7.54-24.87c-2.46-13.17-7.38-25.76-14.51-37.12
	c-10.93-16.03-23.29-31.03-36.93-44.84c-17.07-17.99-35.06-35.1-53.88-51.25l-15.07-15.07c-5.92-4.71-12.08-9.12-18.46-13.19
	c-12.99-7.43-25.12-16.28-36.17-26.38l-5.84-5.84l-20.35-34.66l-1.69,1.69c-12.14-13.37-26.55-24.47-42.58-32.78
	c-7.28-4.33-14.15-9.31-20.54-14.88l-18.84-18.84c-12.62-12.62-24.49-26.38-37.68-37.68c-13.19-11.31-27.13-24.87-40.13-37.87
	l-38.06-41.07l-33.72-37.87l-15.45-15.45l8.67-8.67C561.43,484.44,572.92,472.95,584.42,461.46z"/>
</svg>
