<?xml version="1.0" encoding="utf-8"?>
<!-- Generator: Adobe Illustrator 24.3.0, SVG Export Plug-In . SVG Version: 6.00 Build 0)  -->
<svg version="1.1" id="Vrstva_1" xmlns="http://www.w3.org/2000/svg" xmlns:xlink="http://www.w3.org/1999/xlink" x="0px" y="0px"
	 viewBox="0 0 1000 1000" style="enable-background:new 0 0 1000 1000;" xml:space="preserve">
<path d="M619.66,469.3l33.66-43.24l35.01-40.76c12.72-12.72,25.16-25.16,37.32-37.32l18.38-18.38c5.84-6.29,10.93-13.3,15.22-20.97
	c7.06-15.11,18.53-26.58,33.64-33.64c16.97-4.93,33.06-11.1,48.21-18.51c11.25-10.33,20.76-22.4,28.4-36.06L883.91,206l65.03-65.03
	c14.99-14.98,28.27-28.27,34.9-42.57c8.35-8.95,13.8-20.58,16.06-34.26c0.93-9.97-4.67-22.71-14.63-33.29
	c-10.38-9.97-22.96-15.9-33.19-15.67c-15.94-0.79-30.23,1.8-42.13,7.63c-16.88,9.47-31.98,21.05-45.13,34.6
	c-15.27,15.26-32.51,32.51-51.46,51.45l-14.7,14.7c-4.16,6.1-7.82,12.64-10.95,19.58c-5.83,14.18-13.66,26.82-23.34,37.72
	c-9.9,9.89-28.59,13.25-43.62,22.54c-13.15,11.49-22.88,26.4-28.8,44.13c-3.54,7.82-7.87,15.02-12.94,21.56l-18.38,18.38
	c-12.15,12.16-24.59,24.6-37.32,37.32c-12.72,12.72-25.16,25.16-37.88,37.88l-41.13,36.34l-38.13,31.42l-5.11,5.11l-1.09-1.09
	l-33.12-33.12l-32.29-32.29l-15.59-15.59c-3.99-5.67-6.99-12.2-8.92-19.47c-2.56-17.41-8.65-32.57-18.04-44.86
	c-10.3-10.3-19.76-19.76-31.19-24.48c-10.34-6.47-18.86-14.98-25.33-25.33c-8.35-8.35-10.47-22.93-17.39-32.72
	c-13.05-16.31-28.75-30.08-46.85-41.1l-53.16-53.16c-10.63-9.2-22.58-16.98-35.73-23.27c-10.92-5.64-21.05-12.24-30.32-19.78
	c-8.07-8.07-18.26-13.47-27.41-18.79l-13.17-7.42l-4.45-4.45l-5.29-5.29C94.65,21.96,85.29,12.6,73.89,5.52
	c-10.31-3.6-21.6,0.44-29.26,8.11C36.97,21.29,32.64,32.3,28.7,48.48c-5.41,21.9-7.49,42.74-6.19,61.84l1.66,8.37l5.01,5.01
	l6.95,13.66L53,166.68c7.39,11.1,16.73,20.45,27.83,27.83c9.18,9.18,22.48,14.82,31.66,24l47.14,58.63
	c18.92,9.11,35.59,20.97,49.77,35.39c7.51,7.51,12.51,19.22,19.98,29.56c7.81,10.79,17.98,19.35,30.23,25.44
	c12.2,6.2,23.57,13.42,34.06,21.6c8.41,10.55,14.54,23.13,18.25,37.42c2.91,8.14,7.51,15,13.62,20.33l15.87,15.86l35.92,29.21
	l36.47,29.77l0.53,0.53l-11.08,11.08l-48.62,48.63c-5.54,4.32-12.16,7.4-19.69,9.15c-17.25,3.14-32.39,9.55-44.89,19.01
	c-9.28,9.63-17.6,20.19-24.92,31.63c-6.6,10.47-15.26,19.12-25.73,25.73c-8.48,8.48-23.19,10.74-33.59,17.3
	c-16.17,13.66-30.01,29.74-41.32,48.02l-54,54c-9.61,10.56-17.55,22.68-23.74,36.19c-6.17,11.92-13.13,20.8-20.17,30.72
	c-7.05,9.92-13.72,18.51-19.16,27.78l-7.58,13.33l-4.52,4.52l-5.37,5.37c-11.27,7.51-20.76,17-28.27,28.27
	c-4.06,7.33-0.63,19.51,8.42,29.91c7.66,7.66,18.72,11.93,34.52,15.3c22.26,5.71,43.45,7.81,62.77,6.22l8.44-1.73l5.09-5.09
	l14.3-6.63l29.69-17.24c11-7.8,20.47-17.27,28.27-28.27c9.33-9.33,15.11-22.78,24.44-32.11l49.38-60.88
	c9.16-19.29,21.09-36.36,35.59-50.92c7.63-7.63,19.95-12.28,30.43-19.89c11.66-7.1,21.18-16.62,28.27-28.27
	c6.34-12.34,13.7-23.87,22.04-34.5c10.5-8.8,23.25-15.09,37.86-18.69c7.99-3.3,14.91-7.96,20.6-13.89l16.12-16.11l36.23-30.49
	l15.07-17.89l14.95,14.95l37.85,37.86l40.17,34.42c12.53,12.53,24.77,24.77,36.74,36.74l18.09,18.09
	c6.12,6.12,11.97,11.97,21.16,14.46c14.74,7.12,26,18.38,33.12,33.12c4.76,16.79,10.76,32.72,17.99,47.69
	c10.22,11,21.95,20.5,35.08,28.38c5.2,4.25,9.94,8.99,14.2,14.19l64.02,64.02c14.75,14.75,30.23,25.44,41.96,34.3
	c8.61,8.46,20.14,13.8,33.87,15.67c9.84,0.97,22.6-4.71,33.14-14.77c14.68-10.24,25.33-26.56,26.1-40.01
	c0.91-15.82-1.55-29.99-7.25-41.74c-8.92-16.98-19.97-32.19-33.02-45.47c-15.03-15.03-32-32.01-53.05-48.26l-14.47-14.47
	c-5.63-4.49-11.94-8.23-18.86-11.19c-14.02-5.68-26.5-13.34-37.25-22.87c-9.74-9.74-12.93-28.26-22.02-43.1
	c-11.3-12.96-26.02-22.5-43.57-28.24c-7.73-3.45-14.85-7.69-21.29-12.67l-18.09-18.09c-11.97-11.97-24.22-24.22-36.74-36.74
	c-12.53-12.52-24.77-24.77-37.3-37.29l-35.73-40.53l-22.7-27.62l8.27-8.27L619.66,469.3z"/>
</svg>
